<?xml version="1.0" standalone="no"?>
<!DOCTYPE svg PUBLIC "-//W3C//DTD SVG 20010904//EN"
 "http://www.w3.org/TR/2001/REC-SVG-20010904/DTD/svg10.dtd">
<svg version="1.0" xmlns="http://www.w3.org/2000/svg"
 width="720.000000pt" height="720.000000pt" viewBox="0 0 720.000000 720.000000"
 preserveAspectRatio="xMidYMid meet">
<metadata>
Created by potrace 1.11, written by Peter Selinger 2001-2013
</metadata>
<g transform="translate(0.000000,720.000000) scale(0.100000,-0.100000)"
fill="#000000" stroke="none">
<path d="M0 6720 l0 -480 185 0 c158 0 185 -2 185 -15 0 -8 -7 -15 -15 -15 -8
0 -15 -4 -15 -8 0 -4 -25 -35 -55 -67 -66 -71 -104 -140 -86 -158 19 -19 12
-27 -19 -20 -23 4 -30 2 -30 -10 0 -9 -6 -20 -14 -24 -18 -11 -29 -50 -16 -58
15 -9 13 -102 -2 -109 -7 -3 -3 -3 9 -1 22 6 46 -16 25 -23 -7 -2 -12 -8 -12
-14 0 -6 -32 -47 -70 -91 l-70 -80 0 -201 0 -200 29 40 c16 21 41 63 56 92 26
51 28 52 61 46 19 -3 40 -2 47 4 8 7 75 6 212 -3 136 -9 307 -12 535 -9 288 5
338 3 354 -10 21 -17 50 -164 40 -208 -7 -34 7 -54 50 -72 17 -8 41 -22 53
-32 12 -11 40 -32 63 -47 22 -16 38 -32 36 -36 -3 -4 3 -7 12 -7 19 0 212
-125 212 -136 0 -5 -12 -8 -27 -8 -62 0 -122 -32 -155 -81 -20 -30 -28 -35
-46 -28 -12 5 -22 13 -22 19 0 5 -18 29 -40 52 -37 40 -53 67 -30 53 19 -12
10 7 -17 36 -34 35 -63 38 -63 7 0 -13 -4 -48 -8 -78 -8 -46 -6 -61 9 -92 12
-23 19 -58 19 -92 0 -51 -3 -57 -50 -107 -27 -29 -50 -54 -50 -55 0 -1 -25
-28 -55 -61 -35 -37 -55 -67 -55 -83 0 -14 -16 -43 -36 -65 -20 -22 -47 -55
-62 -74 l-26 -33 29 -24 c64 -52 62 -49 37 -52 -31 -5 -28 -21 13 -67 20 -22
43 -53 52 -70 8 -16 33 -49 54 -72 22 -24 39 -49 39 -58 0 -8 4 -15 9 -15 10
0 81 -95 81 -108 0 -4 14 -8 30 -9 27 -2 29 0 20 18 -6 11 -8 29 -5 39 6 18
10 17 53 -19 66 -55 146 -92 302 -141 74 -24 140 -45 146 -47 7 -2 15 12 20
34 9 43 9 51 0 74 -6 14 4 17 65 23 39 4 75 4 80 -1 5 -5 13 -65 19 -133 12
-141 16 -160 34 -160 10 0 10 25 0 123 -8 67 -16 134 -18 149 l-5 27 192 -5
c106 -2 225 -7 265 -10 71 -6 73 -6 56 -25 -9 -10 -30 -19 -45 -19 -15 0 -40
-5 -56 -11 -39 -15 -140 -21 -148 -9 -3 5 -13 10 -22 10 -14 0 -14 -2 1 -19
22 -25 13 -58 -17 -64 l-22 -4 23 -2 c25 -1 30 -28 7 -37 -8 -4 -15 -13 -15
-21 0 -12 -3 -13 -14 -4 -12 10 -15 6 -18 -26 l-3 -38 -59 3 c-46 3 -57 1 -54
-10 3 -7 23 -14 49 -16 24 -1 51 -5 59 -8 8 -4 104 -5 213 -4 194 1 197 1 197
-20 0 -21 0 -21 -315 -18 l-315 3 0 22 c0 13 -4 23 -10 23 -5 0 -10 -11 -10
-25 0 -23 -4 -25 -44 -25 l-45 0 -6 48 c-3 26 -7 53 -8 61 -2 15 -4 15 -262
30 -93 6 -195 8 -225 5 -30 -3 -81 -1 -113 4 -54 8 -59 8 -69 -12 -27 -53
-151 -246 -158 -246 -3 0 -16 10 -27 23 -25 27 -227 327 -248 366 -18 35 -70
75 -86 66 -7 -5 1 -19 21 -40 20 -21 28 -35 21 -40 -8 -4 -2 -19 17 -43 25
-32 41 -57 87 -133 6 -9 32 -50 60 -90 27 -41 52 -78 54 -84 11 -28 46 -61 69
-65 24 -5 27 -10 27 -45 0 -38 -1 -40 -32 -40 -30 0 -37 -7 -85 -83 -115 -183
-140 -227 -132 -235 3 -3 1 -38 -6 -79 -6 -40 -14 -91 -16 -112 -3 -22 -7 -43
-10 -47 -2 -4 -11 -49 -18 -101 -8 -51 -31 -178 -51 -282 -35 -188 -52 -284
-60 -361 -3 -22 -7 -58 -10 -80 -3 -22 -8 -69 -11 -105 -3 -36 -9 -81 -14
-100 -5 -19 -12 -84 -15 -145 -3 -60 -10 -132 -17 -158 -6 -27 -8 -69 -4 -93
3 -24 2 -45 -3 -48 -5 -3 -5 -24 -1 -46 4 -24 3 -40 -2 -40 -6 0 -7 -27 -3
-69 5 -47 3 -81 -6 -104 -10 -28 -10 -54 0 -128 7 -52 14 -101 17 -110 3 -9
-3 -24 -11 -33 -15 -15 -15 -16 5 -16 13 0 20 -5 17 -12 -2 -7 1 -20 8 -28 8
-8 17 -31 22 -50 8 -31 13 -35 44 -36 45 -1 81 -13 73 -25 -3 -6 1 -18 10 -27
10 -9 31 -36 47 -59 27 -37 33 -41 49 -30 15 9 22 9 32 -1 19 -19 88 -15 104
6 12 15 13 15 14 0 0 -9 -5 -18 -12 -20 -6 -2 -8 -9 -5 -15 9 -14 154 -10 170
6 13 13 37 15 37 2 0 -5 -8 -12 -17 -14 -10 -3 5 -5 32 -6 32 -1 59 5 74 15
15 11 33 14 53 10 16 -3 38 -1 49 4 13 8 19 7 19 0 0 -7 6 -8 19 0 11 5 37 10
58 10 47 1 139 22 178 42 30 15 81 27 145 34 68 7 115 16 127 26 6 5 14 5 17
0 4 -7 65 -8 101 -1 6 1 29 -1 53 -5 35 -7 42 -5 42 8 0 19 23 21 52 5 11 -6
47 -15 81 -19 74 -11 102 0 92 37 -4 17 -2 23 6 18 6 -4 21 3 33 18 20 23 25
24 86 18 36 -4 75 -5 88 -3 25 5 30 22 6 22 -34 0 -5 24 32 27 50 3 66 7 83
17 10 6 20 1 33 -17 21 -28 52 -27 69 4 15 28 30 23 27 -8 -3 -24 1 -28 21
-28 31 0 40 25 12 32 -15 4 -21 13 -21 34 0 33 9 35 50 14 19 -10 30 -11 30
-5 0 8 15 9 44 5 44 -7 116 10 116 27 0 4 5 8 11 8 8 0 7 -5 -2 -16 -10 -13
-10 -17 2 -25 8 -5 21 -9 29 -9 8 0 21 4 29 9 12 8 12 12 2 25 -8 10 -9 16 -3
16 6 0 14 -5 17 -10 13 -21 35 -9 57 30 20 35 27 40 61 40 23 0 37 5 37 13 0
6 16 -5 35 -25 32 -34 38 -36 63 -27 33 13 88 3 96 -16 4 -12 17 -14 63 -9 32
3 68 11 81 17 19 9 25 7 38 -11 8 -12 20 -22 26 -22 19 0 78 44 78 58 0 16 17
15 27 -2 11 -19 55 -32 48 -14 -4 11 12 12 90 4 66 -6 93 -12 85 -20 -15 -15
-12 -43 4 -49 19 -8 26 1 26 35 0 18 5 28 15 28 8 0 15 -6 15 -14 0 -12 6 -12
38 0 20 7 58 13 85 14 42 0 47 -2 48 -22 0 -18 3 -15 13 12 13 35 35 47 44 23
2 -7 -3 -13 -12 -13 -9 0 -16 -7 -16 -15 0 -9 9 -15 25 -15 27 0 32 -9 13 -28
-9 -9 -9 -12 0 -12 7 0 12 5 12 10 0 6 14 10 30 10 17 0 41 7 55 16 22 14 24
14 35 -6 9 -17 14 -19 26 -9 11 9 14 8 14 -6 0 -13 5 -16 20 -11 11 3 29 9 40
12 14 5 20 2 20 -10 0 -10 9 -16 25 -16 22 0 25 3 19 25 -4 15 -2 25 5 25 6 0
11 -6 11 -14 0 -20 17 -29 70 -38 104 -17 111 -20 99 -34 -8 -10 -8 -18 -1
-27 5 -6 11 -21 13 -31 4 -18 5 -19 21 -3 22 22 25 21 24 -5 -1 -21 4 -23 54
-26 61 -3 85 -17 58 -33 -19 -11 -25 -39 -8 -39 6 0 10 -7 10 -16 0 -8 5 -12
10 -9 6 4 8 10 5 15 -3 5 4 14 15 20 11 6 20 16 20 23 0 7 12 13 27 14 24 1
25 0 8 -9 -17 -10 -13 -14 34 -34 39 -18 58 -21 71 -14 30 16 50 12 50 -10 0
-11 5 -20 11 -20 7 0 17 -7 23 -14 9 -12 24 -13 74 -7 58 7 62 6 56 -12 -5
-17 -2 -18 28 -12 18 4 35 11 36 16 5 14 24 11 44 -7 14 -14 20 -14 33 -4 9 8
15 8 15 2 0 -6 16 -16 35 -23 23 -9 31 -16 22 -21 -8 -5 -7 -8 5 -8 9 0 19 -6
22 -12 4 -9 10 -6 22 9 16 23 54 32 54 13 0 -5 10 -10 23 -10 12 0 33 -7 46
-17 23 -16 25 -15 44 8 18 23 19 23 33 4 8 -10 14 -25 14 -32 0 -7 7 -13 15
-13 20 0 19 10 -2 27 -16 12 -8 13 59 7 43 -3 92 -1 110 4 69 21 108 24 108 7
0 -8 7 -15 15 -15 8 0 15 7 15 16 0 13 3 14 15 4 17 -14 66 -5 62 12 -1 8 12
11 38 9 22 -1 53 4 69 13 16 8 35 12 43 9 9 -4 16 2 20 15 3 11 18 25 35 31
16 6 37 20 46 31 14 17 33 22 100 28 l83 7 24 68 c17 48 27 111 35 215 15 181
10 506 -7 523 -7 7 -9 18 -4 28 9 18 -9 229 -22 249 -5 6 -5 17 -2 22 4 6 0
54 -9 108 -30 193 -67 485 -96 767 -27 266 -37 352 -54 465 -8 52 -16 129 -18
170 -3 64 -1 75 13 74 9 -1 145 -5 303 -9 l286 -7 0 55 0 55 -47 6 c-27 3 -91
8 -143 11 -109 7 -372 33 -411 41 -25 5 -28 11 -40 85 -12 75 -20 92 -34 69
-3 -5 -17 -10 -31 -10 -13 0 -24 -3 -24 -8 0 -4 -11 -14 -24 -22 -13 -8 -53
-42 -88 -75 -35 -33 -88 -80 -118 -105 -30 -24 -73 -61 -94 -82 -51 -48 -82
-50 -91 -6 -4 18 -17 48 -29 68 -39 62 -114 223 -137 293 -12 37 -26 67 -31
67 -4 0 -7 14 -6 31 3 34 22 54 138 150 41 33 98 80 125 102 28 23 78 70 113
104 35 35 67 61 72 58 10 -6 44 -79 66 -140 8 -22 18 -49 24 -60 10 -21 59
-129 105 -233 l28 -64 36 8 c20 4 61 9 91 10 65 3 110 13 128 27 7 5 15 7 19
4 9 -9 44 13 38 24 -4 5 -2 9 4 9 18 0 34 40 21 54 -12 15 30 34 180 82 47 15
102 35 123 46 l37 18 0 170 0 170 -27 -6 c-16 -4 -42 -13 -60 -21 -18 -7 -41
-13 -52 -13 -11 0 -21 -4 -23 -9 -1 -5 -35 -11 -74 -15 l-71 -7 -11 70 c-12
68 -7 131 9 131 4 0 11 9 14 20 3 11 13 20 21 20 8 0 14 10 14 26 0 22 -2 25
-15 14 -13 -11 -14 -8 -9 21 11 58 46 150 57 146 18 -6 20 -27 3 -27 -9 0 -16
-4 -16 -10 0 -5 7 -10 15 -10 8 0 15 5 15 10 0 14 37 12 44 -2 3 -7 4 -4 1 7
-4 17 1 20 37 22 52 3 77 25 70 60 -3 17 -1 24 6 19 21 -13 24 16 3 35 -28 27
-27 29 11 18 18 -5 34 -9 35 -9 2 0 3 528 3 1173 0 806 -3 1176 -11 1184 -5 5
-10 47 -11 92 -1 70 -4 83 -20 92 -11 6 -17 13 -15 16 3 2 -6 21 -19 40 -26
39 -28 50 -15 72 17 26 -51 111 -88 111 -11 0 -23 4 -26 10 -4 6 -406 10
-1167 10 l-1160 0 -39 -40 c-22 -22 -45 -40 -51 -40 -27 0 -98 -45 -98 -62 0
-14 -9 -18 -40 -18 -29 0 -40 4 -40 15 0 8 -6 25 -12 36 -10 16 -10 23 -1 26
8 3 6 15 -5 43 l-17 40 -247 0 c-137 0 -248 -4 -248 -9 0 -4 5 -22 11 -40 6
-17 8 -39 5 -48 -6 -14 -8 -14 -20 3 -12 15 -18 16 -40 6 -22 -10 -27 -9 -38
7 -11 16 -36 20 -153 29 -300 24 -315 24 -315 10 0 -8 5 -19 12 -26 17 -17 -3
-35 -33 -30 -20 2 -24 9 -24 38 l0 35 -70 0 -70 0 3 -41 c4 -44 -16 -71 -43
-60 -11 4 -15 20 -15 56 l0 50 -65 0 -65 0 0 -60 c0 -49 -3 -61 -20 -70 -32
-17 -40 -4 -40 66 l0 64 -60 0 -59 0 -3 -77 -3 -78 -90 -12 c-49 -6 -107 -14
-127 -16 l-38 -5 0 49 0 49 -42 0 c-62 0 -70 -9 -78 -87 -8 -78 -12 -74 -10 9
1 42 -3 58 -15 65 -9 5 -13 16 -10 24 4 12 24 16 82 17 63 1 80 5 100 23 12
13 23 31 23 41 0 16 -10 18 -95 18 -54 0 -95 -4 -95 -10 0 -5 -13 -22 -28 -38
-27 -27 -30 -37 -36 -133 -4 -63 -13 -113 -22 -126 -8 -12 -14 -33 -14 -45 0
-13 -7 -55 -15 -93 -9 -39 -20 -101 -26 -140 -5 -38 -19 -123 -32 -188 l-23
-119 -45 -27 c-50 -31 -154 -140 -164 -171 -6 -20 -20 -26 -29 -12 -15 24 -38
277 -33 367 3 58 2 92 -3 80 -5 -11 -9 -52 -9 -92 -1 -39 -6 -75 -11 -78 -5
-3 -10 -18 -10 -33 0 -21 2 -24 10 -12 7 11 10 -3 10 -47 0 -34 -4 -65 -10
-68 -6 -3 -8 -40 -5 -88 3 -54 2 -75 -4 -62 -5 11 -10 55 -10 97 -1 42 -5 79
-10 82 -5 4 -7 -3 -4 -14 3 -11 2 -31 -1 -45 -5 -21 -12 -25 -46 -25 -33 0
-40 3 -40 19 0 17 -8 20 -52 23 -52 3 -53 4 -80 53 -15 28 -28 44 -28 38 0
-10 -31 -13 -120 -13 -113 0 -120 1 -120 20 0 18 -7 20 -80 20 l-80 0 0 40 c0
32 -4 40 -18 40 -9 0 -23 9 -30 20 -7 11 -20 20 -30 20 -19 0 -42 18 -42 32 0
4 8 8 17 8 13 0 7 10 -20 38 -20 21 -37 46 -37 56 0 21 -57 106 -70 106 -6 0
-10 9 -10 20 0 11 -6 20 -13 20 -8 0 -20 18 -27 40 -7 22 -19 40 -27 40 -7 0
-13 5 -13 10 0 6 -18 10 -40 10 -22 0 -40 4 -40 9 0 5 -39 13 -87 17 -64 7
-87 13 -85 22 1 8 -2 11 -8 7 -11 -7 -56 38 -65 66 -4 11 -11 19 -16 19 -5 0
-9 7 -9 15 0 9 -12 27 -26 40 -21 19 -23 25 -10 25 25 0 19 16 -21 58 -21 21
-46 52 -55 70 l-17 32 -201 0 -200 0 0 -480z m5647 424 c-3 -3 -12 -4 -19 -1
-8 3 -5 6 6 6 11 1 17 -2 13 -5z m-2172 -24 c3 -5 1 -10 -4 -10 -6 0 -11 5
-11 10 0 6 2 10 4 10 3 0 8 -4 11 -10z m-995 -83 c0 -23 -32 -59 -42 -49 -17
17 0 62 22 62 11 0 20 -6 20 -13z m1148 -123 c33 -5 52 -12 52 -20 0 -10 -13
-12 -47 -9 -27 2 -60 4 -75 5 -18 0 -28 5 -28 15 0 17 17 18 98 9z m2369 -191
c15 -57 8 -99 -20 -137 -74 -96 -77 -206 -7 -206 l30 0 0 -65 c0 -53 -3 -66
-19 -74 -22 -12 -47 9 -38 32 9 24 -10 41 -46 41 -46 0 -67 -19 -67 -60 0 -24
-5 -34 -15 -34 -10 0 -15 10 -15 29 0 18 -8 34 -22 43 -25 17 -28 1 32 173 11
33 28 92 36 130 9 39 19 83 23 100 8 34 41 55 88 55 27 0 34 -5 40 -27z m-960
-215 c8 -16 11 -28 6 -28 -9 0 -39 63 -48 100 -3 17 0 14 11 -10 9 -19 23 -47
31 -62z m-1091 -10 c-18 -10 -79 -1 -72 11 3 4 24 5 47 3 33 -4 39 -6 25 -14z
m-342 -4 c3 -8 2 -12 -4 -9 -6 3 -10 10 -10 16 0 14 7 11 14 -7z m2086 -102
c0 -16 6 -52 14 -82 27 -110 27 -110 11 -110 -10 0 -15 10 -15 34 0 58 -7 66
-61 66 -54 0 -69 15 -69 69 0 35 6 39 62 50 53 9 58 7 58 -27z m565 -12 c21
-23 13 -87 -12 -97 -33 -13 -56 55 -33 98 13 24 22 24 45 -1z m-1535 -30 c0
-5 -4 -10 -10 -10 -5 0 -10 5 -10 10 0 6 5 10 10 10 6 0 10 -4 10 -10z m215
-25 c118 -20 172 -36 165 -50 -3 -6 -12 -9 -20 -7 -8 1 -52 9 -98 16 -46 7
-89 19 -95 25 -6 6 -27 11 -46 12 -20 0 -52 7 -71 15 l-35 14 50 -5 c28 -2 95
-11 150 -20z m400 15 c-3 -5 -11 -10 -16 -10 -6 0 -7 5 -4 10 3 6 11 10 16 10
6 0 7 -4 4 -10z m-196 -80 c11 -24 11 -24 -3 -6 -9 11 -16 24 -16 30 0 12 5 7
19 -24z m93 -37 c48 -42 98 -99 98 -112 0 -2 -21 16 -47 42 -26 26 -50 47 -54
47 -3 0 -24 16 -45 35 -26 24 -33 35 -21 35 9 0 40 -21 69 -47z m854 -70 c19
-184 -24 -875 -73 -1143 -11 -59 -13 -112 -9 -175 4 -55 3 -85 -3 -76 -5 7
-14 11 -20 7 -6 -4 -20 -2 -31 4 -40 21 -180 131 -180 140 0 6 -18 29 -39 53
-22 23 -55 60 -74 81 l-34 39 -26 -85 c-51 -162 -132 -252 -317 -351 -68 -36
-123 -53 -225 -67 l-80 -12 0 -43 c0 -43 0 -44 -30 -38 -21 3 -26 2 -16 -5 21
-15 2 -34 -31 -30 -17 2 -29 -1 -28 -7 6 -25 13 -35 24 -35 17 0 63 -72 77
-120 9 -28 9 -46 0 -70 -6 -18 -8 -37 -4 -43 4 -6 10 -31 13 -54 l7 -43 -33 0
c-29 0 -33 4 -41 38 -6 27 -14 37 -28 37 -13 0 -20 -7 -21 -20 -3 -65 -3 -65
-31 -65 -16 0 -23 4 -17 8 16 10 14 72 -2 72 -18 0 -45 -55 -38 -74 4 -11 0
-16 -11 -16 -10 0 -15 5 -12 14 5 14 -10 36 -25 36 -4 0 -8 -7 -8 -15 0 -8 -6
-15 -14 -15 -8 0 -13 8 -12 18 0 9 -6 17 -14 17 -8 0 -14 -8 -14 -17 1 -10 -4
-18 -12 -18 -8 0 -14 5 -14 11 0 7 -11 0 -24 -14 -15 -17 -31 -24 -40 -21 -19
7 -21 24 -4 24 9 0 9 3 0 12 -10 10 -17 10 -32 0 -23 -14 -28 -7 -32 40 -1 27
-9 40 -30 53 -18 10 -28 24 -28 40 0 32 -36 44 -55 18 -8 -10 -15 -21 -15 -25
0 -15 -20 -8 -20 7 0 8 -4 15 -10 15 -13 0 -13 -26 0 -49 5 -10 11 -30 14 -45
3 -14 8 -35 11 -46 4 -13 2 -20 -7 -21 -7 0 -4 -4 7 -9 16 -7 11 -9 -20 -9
-29 -1 -36 2 -25 9 22 14 3 12 -23 -2 -12 -7 -38 -14 -57 -15 -19 0 -60 -4
-90 -7 -74 -8 -329 -7 -412 0 -64 6 -84 16 -55 27 8 4 7 6 -3 6 -9 1 -21 -4
-28 -11 -9 -9 -12 -9 -12 0 0 7 -11 12 -25 12 -16 0 -25 -6 -25 -15 0 -8 -9
-15 -20 -15 -11 0 -20 4 -20 9 0 5 -9 11 -20 14 -16 4 -20 14 -20 46 0 35 -3
41 -21 41 -24 0 -21 19 4 32 9 4 25 12 34 16 30 15 27 32 -7 32 -17 0 -29 4
-25 9 3 6 18 6 38 0 55 -16 59 -13 52 31 -6 35 -4 40 13 40 11 0 25 7 32 15 7
8 27 19 44 25 25 7 26 9 6 7 -27 -2 -60 29 -60 57 0 9 -4 16 -10 16 -5 0 -10
-9 -10 -20 0 -11 -4 -20 -10 -20 -5 0 -10 9 -10 20 0 17 -7 20 -52 19 -29 0
-66 -4 -83 -9 -16 -5 -58 -11 -91 -14 -84 -7 -97 4 -101 85 -5 98 -25 324 -28
327 -2 2 -25 -12 -52 -31 -26 -18 -66 -42 -88 -51 -22 -10 -58 -26 -80 -36
-116 -53 -256 -97 -383 -121 -81 -15 -339 -6 -403 15 -72 23 -152 61 -187 91
-17 14 -36 24 -42 20 -13 -8 -13 8 1 22 8 8 19 6 40 -6 16 -9 29 -19 29 -23 0
-5 6 -8 13 -8 7 0 28 -9 48 -19 20 -11 76 -32 125 -47 81 -26 103 -28 239 -29
149 0 151 0 290 44 157 48 323 129 425 207 68 52 197 180 217 217 6 12 28 51
48 86 20 35 33 66 30 70 -4 3 -10 -1 -15 -9 -5 -8 -21 -31 -35 -50 -23 -30
-26 -31 -20 -10 4 14 11 30 16 36 13 16 29 141 27 219 -1 62 -2 58 -9 -36 -5
-76 -13 -118 -28 -147 -12 -23 -21 -46 -21 -52 0 -11 -34 -62 -57 -88 -24 -25
-13 -36 12 -12 14 13 25 19 25 13 0 -6 -38 -51 -85 -101 -153 -162 -338 -258
-638 -328 -93 -22 -126 -25 -235 -22 -112 3 -131 6 -159 26 -17 12 -45 22 -62
22 -17 0 -47 7 -68 16 -21 9 -51 22 -68 29 -36 16 -168 132 -175 154 -3 9 -17
35 -33 58 -23 37 -29 60 -39 167 -14 154 -2 284 39 408 20 64 34 89 50 97 13
6 23 17 23 25 0 8 14 28 30 45 47 47 18 45 -32 -2 -52 -49 -83 -92 -91 -128
-4 -15 -19 -41 -34 -57 -15 -17 -28 -39 -29 -49 -19 -155 -27 -287 -17 -290 8
-3 10 -15 7 -33 -7 -31 11 -97 31 -117 7 -7 21 -38 31 -70 9 -32 23 -65 29
-73 7 -8 10 -21 8 -27 -3 -7 2 -13 11 -13 8 0 30 -13 48 -30 30 -28 31 -30 10
-30 -12 0 -22 -6 -23 -12 0 -8 -3 -7 -6 2 -3 8 -23 32 -45 54 -52 51 -76 102
-104 216 -40 158 -30 334 28 508 11 34 24 62 28 62 4 0 12 11 18 25 16 36 88
111 138 145 24 16 55 38 71 49 33 25 210 66 373 87 63 8 187 26 275 39 88 14
221 32 295 40 150 17 297 39 409 61 102 20 174 18 194 -3 27 -31 72 -360 61
-453 -6 -55 -29 -149 -65 -271 -10 -37 -35 -93 -54 -125 -26 -42 -35 -69 -35
-101 0 -24 5 -43 10 -43 6 0 10 -8 10 -18 0 -10 4 -22 9 -27 5 -6 11 -86 13
-178 1 -93 6 -174 10 -180 4 -7 8 -7 9 -2 5 54 6 105 9 261 2 155 0 185 -14
206 -16 25 -16 28 14 79 16 30 35 66 41 82 6 15 16 28 22 29 7 0 17 2 22 3 6
2 27 3 48 4 51 1 38 21 -14 21 -31 0 -39 4 -39 18 0 10 7 27 15 38 8 10 15 29
15 41 0 12 10 31 21 42 16 14 22 34 25 73 7 113 9 133 19 140 19 14 34 8 38
-14 4 -22 4 -22 6 2 3 66 63 327 80 350 34 47 89 49 266 10 22 -5 90 -16 150
-25 61 -9 153 -25 205 -35 152 -29 377 -65 480 -76 73 -8 67 -7 175 -28 83
-15 135 -28 170 -41 13 -5 9 2 -12 22 -18 16 -33 35 -33 41 0 7 -5 12 -11 12
-6 0 -9 -7 -5 -15 4 -12 -3 -15 -37 -14 -23 1 -34 3 -24 6 9 2 17 11 17 19 0
13 13 14 71 11 l72 -4 54 -59 c30 -33 60 -66 67 -74 8 -8 17 -31 21 -50 4 -19
16 -47 27 -62 53 -76 93 -215 102 -353 2 -38 5 -73 5 -77 1 -5 9 -8 19 -8 10
0 23 -5 29 -11 14 -14 49 4 57 28 22 75 54 597 56 909 1 43 2 47 13 29 9 -14
11 -81 10 -237 -3 -306 -24 -529 -80 -835 -4 -25 -1 -33 15 -42 19 -10 21 -6
38 64 15 62 22 78 43 88 29 14 27 1 55 313 9 100 16 273 16 417 0 144 4 247 9
247 41 0 7 -737 -48 -1068 -12 -68 -15 -113 -9 -124 9 -19 47 -43 55 -34 3 2
11 60 19 127 12 118 20 138 51 139 23 0 26 14 44 210 20 213 26 387 22 588 -3
164 -2 192 11 192 10 0 16 -18 22 -67z m-906 -253 c-8 -5 -22 -10 -30 -10 -13
0 -13 1 0 10 8 5 22 10 30 10 13 0 13 -1 0 -10z m-5000 -120 c4 0 11 7 14 16
4 9 9 14 12 11 9 -8 -27 -58 -37 -51 -5 3 -8 17 -8 32 1 17 3 21 6 10 2 -10 8
-18 13 -18z m1776 -1049 c-4 -5 -1 -11 6 -13 17 -6 0 -28 -23 -28 -11 0 -19 7
-19 16 0 8 5 12 10 9 6 -3 10 1 10 9 0 9 5 16 11 16 5 0 8 -4 5 -9z m3688 -7
c9 -3 16 -16 16 -28 0 -12 9 -32 20 -44 11 -12 20 -31 20 -44 l0 -23 -19 24
c-20 26 -36 15 -24 -16 6 -15 5 -16 -9 -5 -12 10 -18 10 -23 1 -6 -8 -10 -8
-16 2 -4 8 -3 19 3 26 6 8 8 16 5 20 -9 9 -87 22 -135 23 -44 0 -82 14 -82 29
0 11 74 30 135 34 28 2 60 4 72 5 12 1 28 -1 37 -4z m131 -6 c44 -1 45 -2 13
-5 -47 -5 -49 -19 -5 -28 17 -4 44 -14 59 -23 15 -9 30 -13 33 -10 10 10 -7
37 -27 44 -26 8 -18 15 10 7 13 -3 32 -22 43 -42 10 -20 35 -58 54 -85 20 -27
33 -51 31 -53 -12 -13 -74 20 -85 45 -10 22 -10 25 0 15 15 -15 29 -17 29 -5
0 15 -41 53 -50 47 -5 -3 -19 -1 -30 5 -16 9 -22 8 -27 -6 -3 -9 -2 -19 4 -23
16 -10 63 -85 63 -99 0 -9 -12 -12 -42 -9 -33 3 -44 8 -46 23 -2 15 -1 16 6 5
6 -7 14 -11 20 -7 7 4 1 23 -15 52 -21 38 -30 45 -50 41 -18 -3 -29 3 -45 27
-12 17 -28 37 -35 44 -26 27 -12 57 22 48 11 -3 43 -7 70 -8z m-4045 -79 c0
-11 -27 -12 -34 0 -3 4 -3 11 0 14 8 8 34 -3 34 -14z m62 -31 c-9 -9 -12 -7
-12 12 0 19 3 21 12 12 9 -9 9 -15 0 -24z m-30 -45 c-7 -3 -22 -14 -32 -26
-11 -11 -23 -17 -27 -14 -3 4 6 21 22 37 21 22 32 27 39 19 8 -8 7 -13 -2 -16z
m4008 -90 c-1 -10 -39 39 -40 51 0 5 9 -3 20 -17 11 -14 20 -29 20 -34z
m-4126 -17 c-26 -31 -52 -56 -57 -56 -4 0 15 27 44 60 29 33 54 58 57 56 2 -3
-17 -30 -44 -60z m4361 44 c-4 -14 -2 -20 7 -18 16 4 17 -24 1 -29 -14 -5 -28
40 -18 56 11 18 17 12 10 -9z m-125 -43 c0 -15 -24 -39 -56 -55 -22 -12 -104
-32 -104 -27 0 2 28 21 63 41 34 21 64 42 65 46 6 13 32 9 32 -5z m174 -34
c15 -13 21 -29 21 -55 0 -21 5 -38 10 -38 6 0 10 9 10 19 0 11 3 23 8 27 4 4
7 -24 7 -62 0 -57 6 -83 35 -149 61 -138 135 -324 135 -340 0 -8 -18 -24 -41
-35 -22 -12 -75 -55 -118 -96 -43 -41 -82 -74 -86 -74 -4 0 -23 -13 -42 -30
-18 -16 -37 -30 -42 -30 -5 0 -14 -13 -21 -29 -8 -20 -17 -28 -27 -24 -9 3
-25 -5 -38 -19 -32 -35 -80 -28 -88 12 -5 25 -47 120 -111 255 -14 28 -34 79
-46 115 -11 36 -28 77 -36 92 -20 37 -18 55 10 70 42 23 132 87 177 126 24 21
60 48 79 59 19 12 44 30 55 40 11 11 28 22 38 26 26 10 20 27 -9 27 -22 0 -25
2 -14 15 7 8 19 15 26 15 7 0 32 9 54 21 39 20 51 41 30 54 -11 7 -14 25 -4
25 3 0 16 -8 28 -17z m-196 -122 c0 -37 -5 -43 -89 -110 -49 -39 -93 -71 -99
-71 -5 0 -10 -4 -10 -10 0 -43 -72 89 -86 157 -5 27 -3 32 12 31 17 -1 65 10
149 32 17 4 51 8 77 9 l47 1 -1 -39z m-2451 13 c-3 -3 -12 -4 -19 -1 -8 3 -5
6 6 6 11 1 17 -2 13 -5z m53 2 c0 -3 -4 -8 -10 -11 -5 -3 -10 -1 -10 4 0 6 5
11 10 11 6 0 10 -2 10 -4z m-20 -36 c0 -5 -2 -10 -4 -10 -3 0 -8 5 -11 10 -3
6 -1 10 4 10 6 0 11 -4 11 -10z m-167 -187 c-7 -2 -19 -2 -25 0 -7 3 -2 5 12
5 14 0 19 -2 13 -5z m-50 -10 c-7 -2 -21 -2 -30 0 -10 3 -4 5 12 5 17 0 24 -2
18 -5z m116 -2 c7 -5 9 -11 5 -14 -5 -3 -15 1 -22 9 -14 16 -5 18 17 5z m301
-31 c0 -5 -4 -10 -10 -10 -5 0 -10 5 -10 10 0 6 5 10 10 10 6 0 10 -4 10 -10z
m-511 -41 c-11 -22 -20 -24 -37 -7 -9 9 -12 9 -12 0 0 -9 -8 -8 -30 3 -16 9
-30 17 -30 19 0 2 27 4 60 4 55 0 59 -1 49 -19z m119 6 c20 -4 32 -3 32 4 0 6
9 11 20 11 14 0 20 -7 20 -21 0 -16 4 -19 23 -14 12 4 24 8 27 9 3 0 7 -3 10
-9 7 -13 -50 -19 -63 -6 -5 5 -38 7 -78 4 -70 -5 -70 -5 -60 35 1 2 9 1 19 -2
9 -2 32 -7 50 -11z m880 -14 c10 -6 9 -11 -1 -25 -11 -15 -18 -16 -33 -8 -14
7 -28 6 -50 -3 -29 -12 -31 -11 -27 5 4 15 -3 18 -47 21 -45 4 -50 2 -46 -14
2 -9 0 -15 -4 -12 -5 3 -11 1 -15 -5 -9 -15 -31 -12 -49 6 -15 14 -16 14 -16
0 0 -9 -4 -16 -10 -16 -5 0 -10 9 -10 20 0 11 5 20 12 20 6 0 8 3 5 6 -4 4
-13 1 -22 -6 -12 -10 -15 -10 -15 3 0 14 16 16 102 16 60 0 108 -5 116 -11 10
-9 17 -7 29 5 16 16 48 15 81 -2z m-583 -3 c-61 -14 -133 -20 -115 -8 8 5 23
7 34 4 10 -4 16 -2 13 2 -3 5 20 10 52 11 56 1 56 1 16 -9z m129 -4 c10 -26 7
-44 -8 -44 -14 0 -29 37 -20 52 8 13 21 9 28 -8z m548 -9 c16 1 31 5 35 8 13
13 32 7 38 -13 4 -14 16 -20 38 -21 30 -1 30 -2 -8 -9 -26 -5 -45 -4 -54 4 -8
6 -32 11 -55 11 -32 1 -42 5 -45 20 -2 15 0 17 10 9 8 -6 26 -10 41 -9z m-595
-1 c-3 -3 -12 -4 -19 -1 -8 3 -5 6 6 6 11 1 17 -2 13 -5z m138 -24 c-8 -13
-35 -13 -55 0 -11 7 -5 10 23 10 23 0 36 -4 32 -10z m1668 -110 c4 -42 3 -58
-3 -45 -8 19 -14 123 -6 114 2 -2 6 -33 9 -69z m-3744 23 c-12 -32 6 -146 25
-162 7 -6 64 -12 128 -14 121 -3 148 -12 148 -48 0 -15 -8 -19 -40 -19 -48 0
-56 -13 -41 -66 6 -20 8 -41 5 -45 -7 -12 -213 64 -303 111 -97 51 -157 101
-148 123 3 9 14 17 24 17 35 0 139 57 168 93 36 43 48 46 34 10z m1678 1 c-3
-3 -12 -4 -19 -1 -8 3 -5 6 6 6 11 1 17 -2 13 -5z m141 -1 c-16 -2 -40 -2 -55
0 -16 2 -3 4 27 4 30 0 43 -2 28 -4z m-833 -63 c39 -4 -87 -5 -280 -2 -192 2
-352 6 -354 8 -8 7 564 2 634 -6z m132 -6 c-3 -3 -12 -4 -19 -1 -8 3 -5 6 6 6
11 1 17 -2 13 -5z m1857 -13 c102 -2 55 -11 -85 -17 -93 -4 -141 -10 -157 -20
-17 -11 -27 -12 -43 -3 -29 15 -47 -4 -53 -55 -5 -42 -15 -60 -18 -30 0 10 -4
-1 -8 -26 l-7 -45 -1 40 c-1 22 3 47 8 55 6 10 3 21 -12 37 -22 23 -12 33 10
11 22 -22 14 14 -9 38 l-21 22 169 -3 c92 -1 195 -3 227 -4z m792 -61 c8 -7
14 -20 14 -29 0 -30 45 -95 70 -102 l25 -7 -23 -7 c-33 -11 -22 -29 24 -39 21
-4 48 -12 59 -16 19 -8 19 -9 -2 -9 -29 -1 -30 -27 -2 -34 11 -3 23 -15 26
-26 3 -12 12 -21 19 -21 19 0 18 -6 -6 -30 -11 -11 -20 -26 -20 -34 0 -8 -9
-17 -19 -21 -11 -3 -22 -12 -25 -20 -4 -11 -20 -13 -73 -9 -37 2 -95 -1 -128
-8 l-60 -13 4 -143 c3 -123 1 -146 -13 -161 -14 -15 -16 -29 -10 -70 3 -28 10
-48 14 -46 18 11 22 -144 12 -512 -12 -438 -10 -478 24 -511 26 -25 30 -37 14
-47 -5 -3 -10 -1 -10 5 0 6 -4 8 -10 5 -5 -3 -10 -19 -10 -35 0 -35 -48 -80
-107 -99 -23 -8 -40 -18 -37 -23 6 -9 -25 -6 -42 5 -15 9 -22 -26 -34 -172
-14 -162 -21 -211 -30 -211 -5 0 -11 8 -14 18 -4 9 -15 28 -25 41 l-18 23 4
-33 c3 -22 1 -29 -4 -21 -7 9 -22 10 -59 3 -53 -10 -137 3 -164 25 -10 9 -20
10 -30 4 -8 -6 -27 -7 -42 -4 -14 3 -29 0 -33 -5 -11 -18 -22 -12 -29 14 -7
26 -20 32 -31 15 -3 -5 -15 -10 -26 -10 -10 0 -19 -6 -19 -13 0 -31 -340 -27
-364 4 -12 15 -46 14 -46 -2 0 -5 -9 -9 -20 -9 -11 0 -20 4 -20 8 0 27 -172
64 -186 40 -9 -13 -24 -9 -24 7 0 19 -17 19 -36 0 -12 -11 -20 -12 -35 -4 -14
7 -24 7 -32 1 -15 -12 -119 -18 -135 -8 -7 4 -17 -3 -24 -19 -11 -25 -13 -25
-25 -9 -7 10 -13 27 -13 38 0 12 -7 30 -15 40 -14 19 -15 19 -15 -6 0 -16 -13
-39 -32 -60 l-33 -33 -135 -1 c-93 -1 -145 3 -168 12 -18 7 -62 13 -98 12 -59
-2 -65 -5 -71 -26 -8 -33 -25 -23 -51 32 -25 52 -43 57 -22 5 11 -26 11 -32
-1 -40 -20 -12 -49 -11 -49 2 0 6 -7 8 -17 5 -20 -8 -63 37 -63 66 0 15 -7 17
-47 15 -34 -2 -48 -7 -48 -18 0 -37 -83 -48 -142 -17 -17 8 -26 8 -38 -2 -12
-10 -18 -10 -30 0 -13 11 -18 10 -30 -6 -13 -17 -14 -18 -15 -1 0 15 -22 23
-52 18 -4 0 -15 14 -25 32 -17 32 -17 32 -23 7 -4 -19 -13 -25 -43 -28 -36 -3
-44 5 -38 40 0 4 -6 58 -14 120 -8 62 -23 196 -34 298 -11 102 -23 201 -25
220 -7 58 2 -154 13 -305 19 -267 21 -373 8 -387 -7 -7 -16 -21 -20 -30 -7
-19 -37 -25 -37 -8 0 19 -27 10 -37 -12 -11 -23 -11 -23 -22 5 -6 16 -11 68
-11 116 0 55 -6 105 -16 132 -9 26 -13 59 -10 80 7 44 -20 73 -79 84 -53 9
-91 30 -111 61 -15 22 -17 73 -20 432 -3 292 -9 450 -21 559 -9 84 -14 155
-11 158 3 3 20 -8 38 -25 19 -18 43 -30 59 -30 14 0 41 -4 58 -9 21 -6 35 -6
39 1 3 5 18 7 33 3 14 -4 31 -8 38 -9 20 -3 21 -7 26 -94 6 -88 17 -124 17
-56 0 22 6 46 12 52 10 10 10 17 0 32 -10 17 -10 21 4 27 10 4 135 1 279 -6
201 -10 267 -11 284 -2 28 16 1546 6 1605 -10 54 -14 406 -8 406 7 0 18 -17
20 -145 18 -123 -3 -136 0 -157 39 -9 18 -8 19 15 13 16 -4 27 -1 30 8 4 10
18 11 64 5 32 -4 76 -4 98 1 51 12 175 18 175 9 0 -17 34 -18 46 -2 12 17 13
16 14 -6 0 -13 7 -29 17 -36 20 -15 11 -47 -12 -39 -8 3 -15 1 -15 -5 0 -6 6
-11 14 -11 8 0 17 -7 20 -16 3 -9 4 -113 2 -232 -5 -212 -5 -214 4 -62 5 85
10 193 12 240 l3 85 48 5 c29 4 47 2 48 -5 0 -5 3 -5 6 2 2 7 -5 22 -16 35
-14 14 -21 34 -20 57 l1 36 13 -45 c17 -63 24 -37 27 100 l3 115 94 3 c87 3
93 1 86 -15 -10 -23 -8 -84 4 -96 16 -16 23 14 16 73 -7 57 -7 58 -38 58 -18
0 -70 5 -117 11 -46 6 -196 11 -332 11 l-247 0 9 30 c7 26 6 30 -11 30 -23 0
-23 -1 -4 44 13 32 20 36 50 36 31 0 35 -3 35 -26 0 -27 -20 -54 -42 -54 -10
0 -10 -2 1 -9 22 -14 438 -20 480 -6 19 6 21 14 22 108 0 100 15 224 18 151 1
-23 7 -33 21 -37 22 -6 36 9 32 36 -4 19 24 24 31 5 3 -10 8 -10 21 1 11 9 20
11 27 4 14 -14 24 -205 12 -239 -7 -21 -6 -38 2 -59 11 -25 13 -12 14 100 1
72 4 161 7 198 4 49 2 73 -8 84 -11 14 -11 15 0 9 9 -6 12 -3 10 10 -3 16 5
20 52 24 30 3 60 8 66 12 6 4 15 36 19 70 5 35 10 53 12 41 2 -12 11 -27 19
-33z m-1921 -30 c3 -5 1 -10 -4 -10 -6 0 -11 5 -11 10 0 6 2 10 4 10 3 0 8 -4
11 -10z m745 -37 c0 -32 -5 -28 -14 10 -4 19 -3 26 4 22 5 -3 10 -18 10 -32z
m-985 11 c99 -1 190 -6 203 -10 23 -7 24 -7 27 -67 2 -35 1 -36 -15 -22 -9 8
-28 15 -41 15 -26 0 -56 35 -39 45 29 18 -7 23 -172 25 -172 2 -349 7 -356 9
-2 1 0 6 4 12 5 8 37 9 108 4 55 -4 182 -9 281 -11z m720 3 l220 -2 2 -215 c3
-223 7 -280 23 -280 6 0 11 91 12 228 1 125 3 206 5 179 2 -26 8 -45 14 -42 5
4 9 -8 9 -25 0 -16 5 -39 12 -49 7 -11 8 -26 3 -37 -12 -27 -14 -46 -15 -253
-2 -145 1 -185 11 -192 8 -5 19 -7 26 -5 6 3 13 -4 16 -15 4 -14 -1 -23 -16
-29 -18 -7 -19 -9 -4 -9 12 -1 17 -7 15 -18 -2 -10 -11 -17 -21 -17 -9 1 -17
-1 -17 -5 0 -4 -8 -9 -17 -10 -38 -4 -468 0 -668 6 -115 4 -322 7 -460 7 -215
1 -250 3 -250 16 0 11 11 15 45 14 301 -6 590 -5 592 2 3 10 -194 24 -392 28
-210 4 -217 5 -223 20 -3 8 -9 85 -13 170 l-7 156 113 0 c116 0 149 11 41 14
-67 1 -80 8 -61 31 8 9 17 12 22 7 5 -5 21 -7 36 -4 l27 6 -24 6 c-14 3 -26
11 -29 18 -3 10 8 12 44 10 30 -2 49 -8 50 -15 1 -7 2 -17 3 -23 2 -14 61 -7
61 8 0 10 25 12 108 10 100 -3 107 -4 110 -24 5 -33 81 -60 97 -33 14 21 -6
60 -35 71 -29 10 -29 10 -15 45 17 41 20 99 5 108 -5 3 -10 10 -10 16 0 14 34
11 56 -6 16 -13 17 -16 4 -25 -13 -8 -13 -13 -1 -31 11 -19 11 -23 -1 -30 -17
-10 -17 -51 0 -57 7 -2 12 4 12 13 0 9 5 13 11 9 7 -4 10 7 9 32 -1 22 -2 80
-1 131 1 107 -11 100 146 95 55 -1 199 -3 320 -5z m-1927 -29 c17 -17 15 -28
-6 -28 -10 0 -22 -4 -28 -10 -5 -5 -15 -6 -24 0 -12 7 -11 12 4 29 22 24 37
26 54 9z m476 2 c28 0 53 -5 57 -12 6 -9 11 -9 22 1 17 14 33 -1 21 -20 -10
-17 -488 -2 -529 16 -27 12 -22 13 60 10 50 -2 99 -7 111 -10 12 -4 25 -1 31
7 8 9 35 12 95 10 45 -2 105 -3 132 -2z m389 -20 c7 -26 -6 -73 -21 -78 -7 -2
-12 5 -12 17 0 12 6 21 13 22 10 0 10 2 0 6 -18 7 -17 53 1 53 7 0 16 -9 19
-20z m57 10 c0 -5 -4 -10 -10 -10 -5 0 -10 5 -10 10 0 6 5 10 10 10 6 0 10 -4
10 -10z m2249 -16 c2 -2 -12 -4 -32 -4 -20 0 -37 4 -37 10 0 8 58 3 69 -6z
m-2392 -56 c-3 -8 -6 -5 -6 6 -1 11 2 17 5 13 3 -3 4 -12 1 -19z m423 12 c11
-7 7 -10 -17 -10 -18 0 -33 5 -33 10 0 13 30 13 50 0z m120 0 c0 -5 -9 -10
-21 -10 -11 0 -17 5 -14 10 3 6 13 10 21 10 8 0 14 -4 14 -10z m-380 -21 c0
-5 -10 -9 -21 -9 -18 0 -19 2 -9 15 12 15 30 12 30 -6z m40 1 c13 -8 13 -10
-2 -10 -9 0 -20 5 -23 10 -8 13 5 13 25 0z m170 -6 c0 -2 -17 -4 -37 -4 -24 0
-33 3 -25 9 12 7 62 4 62 -5z m-300 -40 c0 -8 -5 -12 -10 -9 -6 4 -8 11 -5 16
9 14 15 11 15 -7z m217 10 c-3 -3 -12 -4 -19 -1 -8 3 -5 6 6 6 11 1 17 -2 13
-5z m-375 -70 c15 -65 15 -66 -7 -90 -12 -13 -25 -24 -29 -24 -14 0 -5 64 11
76 10 7 14 16 10 20 -4 5 -13 2 -18 -6 -9 -12 -10 -12 -5 3 3 10 6 34 6 53 0
54 15 40 32 -32z m208 45 c0 -11 -4 -18 -10 -14 -5 3 -7 12 -3 20 7 21 13 19
13 -6z m376 -3 c53 -1 71 -9 37 -18 -25 -6 -335 3 -329 10 3 3 49 6 103 6 69
1 98 5 101 14 3 10 7 10 19 1 8 -7 39 -13 69 -13z m-409 -98 c-9 -5 -9 -10 1
-20 19 -19 15 -48 -8 -48 -18 0 -20 7 -20 73 l1 72 18 -35 c14 -25 16 -37 8
-42z m63 52 c0 -5 -4 -10 -10 -10 -5 0 -10 5 -10 10 0 6 5 10 10 10 6 0 10 -4
10 -10z m270 0 c9 -6 11 -10 3 -10 -7 0 -10 -6 -7 -14 4 -9 -6 -16 -31 -20
-36 -7 -55 -2 -55 14 0 6 11 5 26 0 20 -8 25 -7 22 2 -3 8 -28 15 -61 18 -30
3 -59 8 -63 13 -11 11 149 8 166 -3z m1769 -87 c-1 -77 -3 -90 -10 -63 -4 19
-6 41 -4 48 2 6 0 12 -6 12 -10 0 -7 32 7 83 11 36 14 14 13 -80z m741 62 c0
-29 -12 -32 -31 -9 -10 13 -10 17 2 25 23 14 29 11 29 -16z m-2630 -5 c0 -5
-4 -10 -9 -10 -6 0 -13 5 -16 10 -3 6 1 10 9 10 9 0 16 -4 16 -10z m310 -70
c0 -5 -4 -10 -9 -10 -6 0 -13 5 -16 10 -3 6 1 10 9 10 9 0 16 -4 16 -10z
m2334 -1 c4 -3 -37 -9 -90 -13 -93 -6 -121 -3 -97 12 14 9 179 9 187 1z m-796
-59 c12 0 22 -4 22 -10 0 -5 -25 -10 -55 -10 -49 0 -54 2 -43 15 7 8 22 13 33
10 11 -3 30 -5 43 -5z m-160 -15 c1 -5 -5 -10 -13 -9 -8 0 -30 1 -47 2 -22 2
-29 5 -20 11 18 11 76 8 80 -4z m-173 -5 c-27 -12 -43 -12 -25 0 8 5 22 9 30
9 10 0 8 -3 -5 -9z m-2574 -78 c4 -4 9 -35 13 -70 4 -46 2 -64 -7 -67 -6 -2
-49 -5 -94 -7 -73 -3 -83 -1 -83 14 0 9 5 20 10 23 6 4 8 28 4 60 -6 46 -4 54
11 57 30 5 139 -2 146 -10z m284 -4 c9 -8 -53 -21 -94 -20 -42 2 -55 -6 -41
-23 17 -20 1 -65 -27 -76 -51 -19 -70 -12 -77 29 -3 20 -6 53 -6 72 l0 35 120
-5 c65 -3 122 -9 125 -12z m2472 -24 c-3 -3 -12 -4 -19 -1 -8 3 -5 6 6 6 11 1
17 -2 13 -5z m188 -70 l0 -69 -35 2 c-19 1 -89 3 -156 4 l-120 1 -12 28 c-16
35 -42 47 -42 20 0 -10 7 -26 16 -34 14 -15 8 -16 -63 -16 -43 0 -82 4 -88 8
-13 9 -16 39 -9 75 6 28 29 37 37 15 3 -10 8 -10 21 1 14 12 20 12 43 0 21
-11 27 -11 30 -1 3 6 11 12 19 12 9 0 13 -4 10 -9 -4 -5 0 -11 6 -14 22 -7 47
4 53 24 4 10 15 19 25 19 27 0 16 -21 -20 -42 -35 -20 -40 -48 -9 -48 18 0 19
-2 9 -15 -18 -21 0 -18 30 5 21 16 23 22 13 39 -11 17 -9 21 19 30 40 14 99
15 78 1 -8 -5 -10 -10 -4 -10 6 0 10 -10 10 -22 -1 -31 39 -38 49 -9 3 12 3
25 0 31 -3 5 0 10 8 10 8 0 25 9 38 20 13 10 29 18 34 16 6 -1 10 -34 10 -72z
m-328 60 c-3 -3 -12 -4 -19 -1 -8 3 -5 6 6 6 11 1 17 -2 13 -5z m-2373 -33 c4
-5 -3 -7 -14 -4 -23 6 -26 13 -6 13 8 0 17 -4 20 -9z m519 -136 c3 -27 9 -58
12 -68 7 -16 2 -17 -51 -11 -70 8 -79 14 -70 48 6 23 9 25 26 16 16 -8 20 -8
20 4 0 8 6 21 14 28 7 8 17 25 21 38 10 31 21 11 28 -55z m2037 -1 c0 -2 -7
-4 -15 -4 -8 0 -15 4 -15 10 0 5 7 7 15 4 8 -4 15 -8 15 -10z m126 -30 c8 -41
-13 -71 -41 -60 -14 5 -15 9 -6 20 7 8 14 27 15 43 2 15 4 32 5 36 3 20 21 -7
27 -39z m-2116 -7 c0 -5 -4 -5 -10 -2 -5 3 -10 14 -10 23 0 15 2 15 10 2 5 -8
10 -19 10 -23z m3550 -63 c0 -13 -4 -24 -10 -24 -5 0 -10 14 -10 31 0 17 4 28
10 24 6 -3 10 -17 10 -31z m-5360 -51 c6 -16 15 -36 20 -45 6 -10 10 -20 10
-23 0 -7 -61 -6 -99 1 -26 5 -31 11 -31 34 0 49 9 60 51 60 34 0 41 -4 49 -27z
m5364 -103 c23 -8 26 -15 26 -60 l0 -50 -40 0 c-43 0 -43 0 -40 65 3 59 8 63
54 45z m-5349 -142 c-8 -45 -21 -61 -43 -53 -8 3 -34 5 -58 5 -42 0 -44 1 -44
29 0 56 6 61 82 61 l70 0 -7 -42z m5399 -120 c3 -17 6 -43 6 -59 0 -28 -2 -29
-44 -29 l-43 0 -6 53 c-2 28 -3 54 -2 57 2 3 21 6 43 7 37 2 40 0 46 -29z
m-5434 -107 c0 -56 -9 -62 -76 -59 -53 3 -59 5 -62 27 -9 64 11 79 96 72 41
-3 42 -4 42 -40z m5460 -159 c3 -29 4 -55 1 -58 -7 -7 -85 -4 -97 4 -11 6 -17
89 -8 104 3 4 26 6 52 5 l47 -2 5 -53z m-5497 -39 c3 -5 2 -26 -2 -48 -6 -37
-9 -40 -40 -43 -19 -2 -50 -1 -68 3 -28 5 -33 10 -33 35 0 54 7 60 75 60 35 0
66 -3 68 -7z m5525 -215 l4 -53 -63 1 -64 2 -3 55 -3 56 53 3 c29 2 57 0 62
-4 5 -4 11 -31 14 -60z m-5572 -50 c-2 -18 -4 -41 -5 -50 -1 -15 -11 -18 -61
-18 -68 0 -76 8 -66 65 l7 35 64 0 65 0 -4 -32z m5598 -159 c3 -17 6 -44 6
-60 0 -26 -4 -29 -31 -29 -42 0 -69 17 -69 43 0 13 -7 32 -15 43 -23 30 -19
34 44 34 58 0 59 -1 65 -31z m-4558 -37 c-16 -2 -32 0 -37 5 -5 5 7 7 29 4 34
-5 35 -6 8 -9z m-1171 -59 c-10 -56 -13 -63 -31 -63 -12 0 -15 6 -10 23 3 12
6 34 6 50 0 20 5 27 20 27 19 0 20 -4 15 -37z m4405 17 c0 -5 -12 -10 -27 -9
-25 0 -26 1 -8 9 27 12 35 12 35 0z m1354 -177 c3 -21 6 -50 6 -65 0 -27 -2
-28 -49 -28 l-48 0 -7 51 c-7 55 -4 64 29 72 53 13 62 8 69 -30z m-5777 -65
c6 -7 13 -30 17 -50 7 -37 6 -37 -24 -35 -25 2 -31 7 -36 35 -9 46 20 79 43
50z m2169 -121 c53 3 73 1 82 -10 10 -12 7 -14 -15 -15 -16 0 -76 -4 -134 -8
-72 -4 -112 -3 -127 5 -15 8 -27 8 -46 0 -26 -12 -27 -33 -2 -23 8 3 16 2 19
-3 3 -4 -72 -7 -166 -5 -148 2 -180 6 -232 25 -51 19 -56 22 -32 25 15 2 27 8
27 13 0 6 66 8 178 5 97 -2 195 -5 216 -5 22 0 52 -5 68 -12 26 -11 31 -9 45
10 13 20 17 21 32 8 12 -11 34 -14 87 -10z m-696 -7 c0 -5 -5 -10 -11 -10 -5
0 -7 5 -4 10 3 6 8 10 11 10 2 0 4 -4 4 -10z m2902 -24 c13 -19 -11 -32 -33
-18 -11 7 -24 10 -29 7 -11 -7 -23 12 -15 25 7 12 67 1 77 -14z m-316 -23 l2
-31 -57 3 c-142 8 -221 18 -232 31 -9 11 -8 14 2 15 8 0 63 2 122 4 59 1 111
6 115 9 3 4 15 6 26 4 15 -2 21 -11 22 -35z m-396 7 c0 -5 -4 -10 -10 -10 -5
0 -10 5 -10 10 0 6 5 10 10 10 6 0 10 -4 10 -10z m2149 -92 c1 -24 -3 -28 -28
-28 -19 0 -36 8 -49 24 -10 13 -32 26 -48 28 -25 3 -29 7 -29 33 l0 30 70 5
70 5 7 -35 c4 -19 7 -47 7 -62z m19 -257 c-2 -42 -7 -57 -19 -59 -13 -2 -17 8
-22 50 -5 56 5 81 29 71 11 -4 14 -19 12 -62z m-2140 42 c62 -4 89 -9 78 -15
-9 -5 -56 -5 -114 1 -53 6 -107 8 -118 5 -12 -3 -26 1 -35 12 -13 16 -10 17
41 11 30 -4 97 -10 148 -14z m-3797 -174 l52 -11 -32 -14 c-38 -16 -63 -18
-41 -4 11 7 7 10 -17 10 -25 0 -31 4 -27 15 7 18 1 18 65 4z m349 -85 c0 -2
-15 -4 -32 -3 -27 0 -29 2 -13 8 18 8 45 4 45 -5z m348 -11 c-10 -2 -28 -2
-40 0 -13 2 -5 4 17 4 22 1 32 -1 23 -4z m5240 -25 c-4 -46 -28 -49 -28 -4 0
26 4 36 16 36 11 0 14 -8 12 -32z m-2663 -118 c3 -5 -1 -10 -9 -10 -9 0 -16 5
-16 10 0 6 4 10 9 10 6 0 13 -4 16 -10z m-335 -35 c11 -13 6 -15 -39 -15 -39
0 -51 4 -51 15 0 11 11 15 39 15 22 0 44 -6 51 -15z m954 -11 c4 -9 4 -19 1
-22 -3 -3 -5 0 -5 6 0 7 -12 12 -27 13 -25 0 -26 1 -8 9 29 12 32 12 39 -6z
m-1531 -11 c-7 -2 -21 -2 -30 0 -10 3 -4 5 12 5 17 0 24 -2 18 -5z m1487 -13
c0 -5 -10 -10 -22 -10 -19 0 -20 2 -8 10 19 13 30 13 30 0z m294 -45 c3 -8 1
-15 -4 -15 -6 0 -10 7 -10 15 0 8 2 15 4 15 2 0 6 -7 10 -15z m-2577 -101 c-3
-3 -12 -4 -19 -1 -8 3 -5 6 6 6 11 1 17 -2 13 -5z m2703 -14 c0 -5 -9 -10 -20
-10 -11 0 -20 5 -20 10 0 6 9 10 20 10 11 0 20 -4 20 -10z m-2650 -30 c0 -5
-4 -10 -10 -10 -5 0 -10 5 -10 10 0 6 5 10 10 10 6 0 10 -4 10 -10z"/>
<path d="M3470 6019 c0 -5 6 -9 14 -9 24 0 75 -49 73 -70 -1 -11 -3 -20 -4
-20 -2 0 -18 16 -35 36 -22 24 -34 32 -41 25 -8 -8 -8 -14 0 -22 6 -6 9 -19 6
-28 -4 -12 -3 -13 5 -2 7 9 12 10 16 2 4 -6 12 -9 17 -6 5 4 9 -1 9 -9 0 -10
-8 -15 -22 -13 -19 2 -22 -2 -20 -20 3 -20 -1 -23 -27 -23 -17 0 -31 -3 -31
-6 0 -10 33 -33 47 -34 19 0 103 88 103 109 0 31 -20 68 -44 79 -32 16 -66 21
-66 11z"/>
<path d="M3937 6002 c-31 -19 -47 -61 -51 -130 -2 -26 -6 -55 -11 -65 -10 -24
0 -210 13 -232 6 -12 11 23 16 118 4 75 5 141 2 146 -3 5 1 11 9 15 8 3 15 15
15 26 0 31 37 107 55 114 18 6 11 27 -8 25 -7 0 -24 -8 -40 -17z"/>
<path d="M4017 6013 c-4 -3 -7 -14 -7 -24 0 -9 -5 -19 -12 -21 -9 -3 -9 -6 0
-12 7 -4 12 -2 12 3 0 25 37 9 53 -21 l16 -33 0 31 c1 21 -8 39 -27 57 -16 15
-31 24 -35 20z"/>
<path d="M4281 5966 c2 -2 18 -6 34 -10 22 -5 26 -4 15 4 -14 9 -59 15 -49 6z"/>
<path d="M2980 5950 c0 -5 4 -10 9 -10 6 0 13 5 16 10 3 6 -1 10 -9 10 -9 0
-16 -4 -16 -10z"/>
<path d="M4430 5946 c0 -2 7 -7 16 -10 8 -3 12 -2 9 4 -6 10 -25 14 -25 6z"/>
<path d="M2840 5929 c-25 -5 -64 -11 -86 -13 -61 -6 -114 -23 -135 -42 -27
-25 -23 -39 6 -20 13 9 31 16 40 16 9 0 39 7 66 16 40 13 75 16 172 11 125 -5
152 -12 284 -73 88 -40 198 -165 258 -293 9 -18 18 -31 21 -28 6 5 -40 105
-80 176 -38 66 -62 88 -176 155 -105 62 -164 86 -213 86 -14 0 -29 5 -32 10
-7 12 -62 11 -125 -1z"/>
<path d="M4503 5911 c-15 -24 -7 -31 26 -25 14 2 76 -4 136 -14 74 -13 114
-16 123 -9 8 7 30 6 65 -1 69 -15 228 -34 234 -28 3 3 -10 7 -28 10 -19 3 -93
14 -166 26 -72 12 -146 23 -165 25 -39 4 -164 23 -193 30 -13 3 -25 -3 -32
-14z"/>
<path d="M4037 5875 c-11 -15 -29 -25 -45 -26 -19 -1 -22 -3 -8 -6 28 -7 85
26 86 50 0 14 -15 6 -33 -18z"/>
<path d="M2808 5883 c-16 -2 -28 -9 -28 -15 0 -5 7 -7 16 -4 9 3 38 6 65 6 27
0 49 5 49 10 0 10 -48 11 -102 3z"/>
<path d="M2415 5870 c-3 -5 1 -10 9 -10 8 0 18 5 21 10 3 6 -1 10 -9 10 -8 0
-18 -4 -21 -10z"/>
<path d="M4507 5863 c-4 -3 -7 -11 -7 -17 0 -6 5 -5 12 2 6 6 9 14 7 17 -3 3
-9 2 -12 -2z"/>
<path d="M2763 5843 c-54 -7 -171 -70 -217 -117 -107 -106 -142 -196 -134
-342 4 -71 10 -94 43 -161 74 -151 220 -257 397 -287 63 -11 216 13 287 45
102 46 248 177 249 222 0 12 6 64 13 115 15 110 3 190 -37 253 -13 21 -24 42
-24 46 0 5 -21 31 -47 59 -57 61 -160 130 -217 145 -23 6 -45 14 -51 18 -11 8
-212 11 -262 4z m22 -53 c4 -6 -5 -10 -20 -10 -15 0 -24 4 -20 10 3 6 12 10
20 10 8 0 17 -4 20 -10z m107 -72 c27 -32 28 -32 43 -14 8 10 12 22 10 27 -3
4 0 9 7 11 23 8 59 -4 69 -23 5 -11 20 -19 34 -19 14 0 25 -4 25 -10 0 -5 9
-10 20 -10 30 0 55 -31 69 -84 12 -49 39 -85 59 -78 7 2 12 -2 13 -10 1 -7 3
-37 5 -66 3 -38 0 -57 -11 -68 -8 -9 -15 -28 -15 -44 0 -28 -72 -127 -90 -123
-5 1 -23 -11 -40 -27 -18 -17 -37 -27 -43 -23 -6 4 -1 13 12 25 31 24 18 23
-43 -6 -63 -29 -159 -41 -213 -27 -55 15 -87 42 -113 96 -20 42 -40 59 -40 34
0 -5 -4 -7 -10 -4 -5 3 -10 16 -10 28 0 12 -8 42 -16 67 -9 25 -20 59 -24 77
-10 43 12 135 39 162 11 11 21 27 21 35 0 7 12 22 28 32 32 22 150 73 171 73
8 1 27 -14 43 -31z"/>
<path d="M2835 5656 c-179 -50 -233 -242 -103 -362 44 -40 99 -62 176 -67 55
-5 70 -1 122 25 34 17 72 45 88 66 24 32 27 44 27 116 0 74 -3 85 -30 126 -55
82 -181 125 -280 96z"/>
<path d="M2673 5605 c0 -23 1 -24 13 -8 17 23 17 33 0 33 -8 0 -13 -10 -13
-25z"/>
<path d="M4300 5840 c-9 -6 -10 -10 -3 -10 6 0 15 5 18 10 8 12 4 12 -15 0z"/>
<path d="M4450 5816 c-126 -29 -201 -67 -273 -141 -156 -161 -191 -364 -90
-527 13 -21 23 -44 23 -53 0 -8 7 -15 15 -15 9 0 18 -7 21 -15 8 -19 119 -89
164 -103 102 -31 123 -34 202 -30 299 19 526 255 498 520 -8 73 -13 87 -60
182 -23 46 -64 85 -152 147 -13 10 -20 20 -16 25 5 4 17 -1 28 -11 11 -10 23
-15 27 -12 3 4 4 8 2 10 -2 1 -18 12 -36 25 -39 27 -43 27 -43 2 0 -24 -7 -25
-46 -6 -50 25 -159 26 -264 2z m95 -86 c-3 -5 -13 -10 -21 -10 -21 0 -17 -28
6 -42 30 -19 24 -28 -18 -28 -176 0 -308 -205 -219 -339 39 -59 98 -90 177
-92 107 -2 134 7 195 68 30 30 55 63 55 73 0 11 5 22 10 25 16 10 12 114 -6
151 -22 46 -75 91 -124 104 -41 11 -49 23 -27 44 15 14 67 20 67 7 0 -6 9 -12
20 -16 11 -3 27 -22 36 -41 9 -18 20 -31 25 -28 5 3 9 -1 9 -9 0 -7 11 -19 24
-27 13 -7 27 -21 29 -32 3 -11 10 -17 15 -14 11 6 24 -112 17 -154 -2 -14 -4
-30 -4 -36 -1 -15 -36 -54 -49 -54 -6 0 -13 6 -15 13 -3 6 -6 1 -6 -12 -1 -25
-56 -101 -73 -101 -10 0 -66 -23 -100 -40 -9 -5 -52 -9 -95 -9 -94 1 -141 19
-202 79 -42 42 -43 45 -36 89 3 25 8 73 10 106 5 68 -4 47 -27 -63 -18 -89
-31 -55 -26 67 3 72 10 110 28 153 13 31 27 55 32 52 4 -3 5 -11 1 -17 -9 -15
-11 -117 -1 -117 9 0 27 62 34 120 4 25 12 54 19 64 14 19 88 49 93 37 5 -13
96 -4 101 10 2 8 9 17 15 21 16 11 38 10 31 -2z m75 -10 c0 -5 -9 -10 -20 -10
-11 0 -20 5 -20 10 0 6 9 10 20 10 11 0 20 -4 20 -10z"/>
<path d="M4767 5458 c-4 -35 -9 -83 -13 -107 -5 -29 -4 -42 3 -38 6 4 14 37
17 74 4 38 10 83 13 101 3 18 1 32 -5 32 -5 0 -12 -28 -15 -62z"/>
<path d="M4453 5175 c-3 -9 -3 -18 0 -21 9 -9 27 6 27 22 0 19 -19 18 -27 -1z"/>
<path d="M2170 5820 c0 -5 5 -10 10 -10 6 0 10 5 10 10 0 6 -4 10 -10 10 -5 0
-10 -4 -10 -10z"/>
<path d="M5108 5823 c6 -2 18 -2 25 0 6 3 1 5 -13 5 -14 0 -19 -2 -12 -5z"/>
<path d="M2525 5810 c-3 -6 1 -7 9 -4 18 7 21 14 7 14 -6 0 -13 -4 -16 -10z"/>
<path d="M4888 5790 c18 -16 37 -30 43 -30 5 0 -3 14 -18 30 -14 17 -33 30
-42 30 -10 0 -4 -10 17 -30z"/>
<path d="M5350 5815 c0 -4 60 -35 67 -35 2 0 2 4 -1 9 -6 9 -66 33 -66 26z"/>
<path d="M3190 5792 c0 -10 43 -42 56 -42 10 0 -17 30 -38 41 -10 6 -18 6 -18
1z"/>
<path d="M5250 5790 c8 -5 22 -9 30 -9 10 0 8 3 -5 9 -27 12 -43 12 -25 0z"/>
<path d="M5420 5767 c0 -3 14 -12 30 -21 26 -12 30 -12 30 0 0 8 -6 14 -14 14
-8 0 -21 3 -30 6 -9 3 -16 4 -16 1z"/>
<path d="M5356 5747 c3 -10 9 -15 12 -12 3 3 0 11 -7 18 -10 9 -11 8 -5 -6z"/>
<path d="M2033 5743 c-23 -8 -14 -23 14 -23 14 0 35 -8 46 -17 15 -14 19 -14
15 -3 -6 18 -59 48 -75 43z"/>
<path d="M4111 5705 c-22 -24 -41 -50 -41 -57 0 -7 6 -4 12 7 6 11 27 34 47
52 19 18 33 35 30 38 -4 3 -25 -15 -48 -40z"/>
<path d="M5340 5695 c-8 -9 -8 -15 -2 -15 12 0 26 19 19 26 -2 2 -10 -2 -17
-11z"/>
<path d="M5010 5658 c0 -9 7 -22 17 -29 15 -13 15 -12 3 11 -17 34 -20 36 -20
18z"/>
<path d="M5335 5640 l-30 -31 43 23 c40 22 44 22 53 6 5 -10 17 -18 24 -18 18
0 18 10 1 33 -20 26 -59 21 -91 -13z"/>
<path d="M2105 5640 c-13 -37 -14 -50 -5 -50 16 0 27 26 20 50 l-6 25 -9 -25z"/>
<path d="M5450 5610 c0 -5 5 -10 10 -10 6 0 10 5 10 10 0 6 -4 10 -10 10 -5 0
-10 -4 -10 -10z"/>
<path d="M5396 5569 c-10 -7 -36 -9 -60 -5 -29 4 -37 3 -26 -4 8 -5 36 -10 63
-10 35 0 47 4 47 15 0 18 0 18 -24 4z"/>
<path d="M5556 5455 c3 -16 8 -88 11 -160 8 -223 -36 -357 -154 -471 -75 -73
-218 -148 -310 -165 -32 -6 -83 -17 -113 -26 -41 -12 -82 -14 -164 -10 -60 2
-103 1 -95 -3 30 -16 109 -19 239 -11 208 14 321 61 456 188 59 56 74 78 108
163 57 140 70 342 31 475 -8 28 -12 37 -9 20z"/>
<path d="M5079 5468 c-6 -24 -5 -70 2 -74 5 -3 9 13 9 35 0 23 -2 41 -5 41 -3
0 -5 -1 -6 -2z"/>
<path d="M3431 5444 c0 -11 3 -14 6 -6 3 7 2 16 -1 19 -3 4 -6 -2 -5 -13z"/>
<path d="M3885 5411 c3 -6 7 -33 9 -59 2 -44 45 -159 72 -192 7 -8 27 -41 44
-74 35 -64 85 -115 113 -116 21 0 22 13 2 30 -8 7 -15 17 -15 23 0 5 -14 23
-31 39 -40 38 -84 132 -100 213 -9 45 -17 65 -30 68 -11 3 -19 16 -21 38 -2
27 -8 35 -27 37 -15 3 -21 0 -16 -7z"/>
<path d="M3561 5394 c0 -11 3 -14 6 -6 3 7 2 16 -1 19 -3 4 -6 -2 -5 -13z"/>
<path d="M3551 5354 c0 -11 3 -14 6 -6 3 7 2 16 -1 19 -3 4 -6 -2 -5 -13z"/>
<path d="M3831 5343 c0 -6 -4 -20 -7 -30 -5 -14 -4 -15 5 -7 7 7 11 20 8 30
-3 11 -5 14 -6 7z"/>
<path d="M3852 5115 c-20 -21 -42 -35 -57 -35 -13 0 -27 -5 -30 -10 -9 -15 24
-25 38 -11 6 6 17 11 24 11 10 0 13 -36 13 -164 0 -150 1 -164 18 -162 15 1
17 -10 16 -111 0 -62 1 -111 3 -109 11 10 25 169 28 300 2 139 1 149 -17 154
-12 3 -15 8 -10 16 5 6 10 27 10 47 1 20 5 47 10 60 9 24 6 49 -6 49 -4 0 -22
-16 -40 -35z"/>
<path d="M3465 5060 c-3 -5 -1 -10 4 -10 6 0 11 5 11 10 0 6 -2 10 -4 10 -3 0
-8 -4 -11 -10z"/>
<path d="M3317 5039 c-4 -16 -3 -18 9 -8 16 13 19 29 5 29 -5 0 -11 -9 -14
-21z"/>
<path d="M3602 5015 c0 -16 2 -22 5 -12 2 9 2 23 0 30 -3 6 -5 -1 -5 -18z"/>
<path d="M3930 5019 c0 -11 4 -18 10 -14 5 3 7 12 3 20 -7 21 -13 19 -13 -6z"/>
<path d="M3259 4983 c-13 -15 -12 -15 9 -4 23 12 28 21 13 21 -5 0 -15 -7 -22
-17z"/>
<path d="M4002 4960 c3 -16 1 -30 -4 -30 -4 0 -8 -8 -8 -17 0 -9 -9 -42 -19
-72 -10 -31 -21 -74 -24 -97 -3 -23 -12 -57 -22 -77 -12 -26 -16 -55 -13 -113
l3 -78 38 -8 c24 -5 46 -4 58 3 13 7 131 10 336 9 174 0 314 3 310 6 -4 4 -44
8 -89 9 -46 1 -162 6 -258 11 -96 5 -183 8 -192 6 -22 -2 -23 17 -3 44 8 10
15 30 15 45 0 14 5 30 11 36 8 8 6 20 -6 43 -9 17 -14 34 -11 38 3 3 6 0 6 -7
0 -9 4 -8 15 3 16 16 20 36 7 36 -4 0 -13 -5 -20 -12 -9 -9 -12 -7 -12 9 0 12
6 28 13 35 8 7 12 19 9 27 -2 7 1 17 8 21 10 6 3 19 -25 49 -22 23 -43 41 -47
41 -4 0 -8 -18 -8 -40 0 -29 -4 -40 -15 -40 -16 0 -21 -25 -7 -34 5 -3 2 -49
-5 -103 -15 -108 -21 -133 -22 -88 -2 54 -20 105 -36 98 -10 -3 -15 1 -15 13
0 24 10 39 31 46 10 4 18 24 23 54 3 26 11 53 18 61 10 12 8 17 -6 25 -14 8
-16 17 -11 44 5 28 3 34 -11 34 -12 0 -15 -7 -12 -30z"/>
<path d="M3961 4964 c0 -11 3 -14 6 -6 3 7 2 16 -1 19 -3 4 -6 -2 -5 -13z"/>
<path d="M2885 4880 c-16 -7 -12 -9 18 -9 23 -1 36 3 32 9 -7 12 -23 12 -50 0z"/>
<path d="M3271 4863 c-7 -8 -10 -17 -7 -20 9 -9 29 13 25 25 -2 6 -10 3 -18
-5z"/>
<path d="M2420 4810 c0 -5 5 -10 10 -10 14 0 1 -72 -14 -82 -7 -5 -6 -8 4 -8
9 0 22 15 30 33 7 17 15 35 17 38 5 8 -25 39 -38 39 -5 0 -9 -4 -9 -10z"/>
<path d="M5068 4800 c19 -8 21 -13 12 -29 -14 -26 -13 -31 6 -31 11 0 14 8 12
33 -2 26 -8 32 -28 34 l-25 3 23 -10z"/>
<path d="M5018 4793 c7 -3 16 -2 19 1 4 3 -2 6 -13 5 -11 0 -14 -3 -6 -6z"/>
<path d="M2302 4745 c-7 -15 -8 -25 -2 -25 6 0 10 6 10 13 0 8 4 7 10 -3 9
-13 10 -13 10 0 0 8 -4 21 -8 28 -6 9 -12 6 -20 -13z"/>
<path d="M3846 4717 c3 -10 9 -15 12 -12 3 3 0 11 -7 18 -10 9 -11 8 -5 -6z"/>
<path d="M4980 4700 c0 -5 5 -10 10 -10 6 0 10 5 10 10 0 6 -4 10 -10 10 -5 0
-10 -4 -10 -10z"/>
<path d="M3498 4673 c7 -3 16 -2 19 1 4 3 -2 6 -13 5 -11 0 -14 -3 -6 -6z"/>
<path d="M3300 4659 c0 -5 5 -7 10 -4 6 3 10 8 10 11 0 2 -4 4 -10 4 -5 0 -10
-5 -10 -11z"/>
<path d="M4673 4633 c9 -2 23 -2 30 0 6 3 -1 5 -18 5 -16 0 -22 -2 -12 -5z"/>
<path d="M4645 4590 c3 -5 10 -10 16 -10 5 0 9 5 9 10 0 6 -7 10 -16 10 -8 0
-12 -4 -9 -10z"/>
<path d="M4705 4571 c-3 -6 -14 -11 -24 -11 -26 0 -44 -23 -30 -37 8 -8 20 -7
44 4 31 15 34 14 62 -6 25 -19 40 -22 109 -19 75 3 79 4 82 27 5 32 -10 39
-79 39 -32 0 -80 3 -107 7 -32 4 -52 3 -57 -4z"/>
<path d="M4685 4502 c-13 -14 -2 -22 30 -22 19 0 35 4 35 9 0 10 -57 21 -65
13z"/>
<path d="M3480 4459 c0 -5 5 -7 10 -4 6 3 10 8 10 11 0 2 -4 4 -10 4 -5 0 -10
-5 -10 -11z"/>
<path d="M3880 4441 c0 -6 5 -13 10 -16 6 -3 10 1 10 9 0 9 -4 16 -10 16 -5 0
-10 -4 -10 -9z"/>
<path d="M4822 4180 c0 -14 2 -19 5 -12 2 6 2 18 0 25 -3 6 -5 1 -5 -13z"/>
<path d="M4300 4175 c-10 -13 -9 -15 9 -15 11 0 21 4 21 9 0 18 -18 21 -30 6z"/>
<path d="M4258 4073 c7 -3 16 -2 19 1 4 3 -2 6 -13 5 -11 0 -14 -3 -6 -6z"/>
<path d="M5676 3965 c4 -8 11 -15 16 -15 6 0 5 6 -2 15 -7 8 -14 15 -16 15 -2
0 -1 -7 2 -15z"/>
<path d="M5156 3233 c-12 -12 -6 -33 9 -33 8 0 15 6 15 14 0 17 -14 28 -24 19z"/>
<path d="M5111 2974 c0 -11 3 -14 6 -6 3 7 2 16 -1 19 -3 4 -6 -2 -5 -13z"/>
<path d="M5287 2940 c-3 -11 -1 -20 4 -20 5 0 9 9 9 20 0 11 -2 20 -4 20 -2 0
-6 -9 -9 -20z"/>
<path d="M2092 2805 c0 -44 3 -89 8 -100 11 -25 11 107 0 150 -5 21 -8 7 -8
-50z"/>
<path d="M4598 2873 c7 -3 16 -2 19 1 4 3 -2 6 -13 5 -11 0 -14 -3 -6 -6z"/>
<path d="M3567 2752 c-15 -2 -32 -12 -37 -22 -10 -18 4 -603 15 -620 2 -3 5
-61 6 -129 2 -67 8 -129 14 -136 15 -19 92 -26 106 -9 8 10 10 51 4 147 -11
209 -15 316 -15 402 1 99 -12 317 -18 291 -3 -15 -6 -16 -12 -5 -7 10 -12 6
-21 -13 -10 -22 -9 -29 5 -43 11 -11 16 -34 16 -70 0 -29 3 -61 7 -71 4 -11 3
-15 -4 -11 -7 5 -14 -5 -18 -24 -5 -20 -3 -34 5 -39 9 -6 9 -12 -1 -28 -11
-17 -11 -28 -1 -55 15 -40 16 -127 2 -127 -5 0 -10 6 -10 13 -2 52 -13 176
-21 242 -10 91 -12 285 -2 285 3 0 15 -8 26 -17 11 -10 17 -12 13 -5 -4 6 -2
12 4 12 18 0 6 22 -16 29 -10 4 -31 5 -47 3z"/>
<path d="M5307 2733 c-3 -16 -1 -35 4 -43 6 -10 8 -2 9 28 0 48 -5 55 -13 15z"/>
<path d="M2548 2738 c-6 -15 2 -121 26 -343 9 -82 20 -229 26 -325 5 -96 12
-185 16 -197 6 -24 68 -48 102 -41 21 4 21 29 -1 293 -9 110 -21 279 -28 375
-6 96 -16 181 -22 188 -18 23 -29 12 -23 -25 4 -21 8 -74 10 -118 2 -44 7 -92
11 -107 5 -20 3 -28 -6 -28 -11 0 -11 -2 1 -10 12 -7 12 -12 3 -21 -10 -10
-13 -9 -17 2 -14 41 -26 128 -27 187 0 37 -6 92 -12 122 -10 44 -16 56 -33 58
-12 2 -24 -3 -26 -10z"/>
<path d="M4521 2733 c-20 -18 -21 -25 -23 -471 l-3 -452 51 0 c30 0 56 5 62
13 7 8 10 79 9 198 -2 156 -5 189 -19 210 l-17 24 0 -27 c-1 -15 -6 -30 -11
-33 -6 -4 -2 -16 10 -32 19 -25 19 -27 3 -45 -9 -10 -20 -15 -25 -10 -5 5 -9
151 -10 325 -1 174 -2 317 -4 317 -1 0 -11 -8 -23 -17z"/>
<path d="M4593 2733 c9 -2 25 -2 35 0 9 3 1 5 -18 5 -19 0 -27 -2 -17 -5z"/>
<path d="M4599 2633 c-11 -30 -4 -73 11 -73 6 0 10 23 10 50 0 56 -6 63 -21
23z"/>
<path d="M2122 2610 c0 -14 2 -19 5 -12 2 6 2 18 0 25 -3 6 -5 1 -5 -13z"/>
<path d="M2122 2540 c0 -14 2 -19 5 -12 2 6 2 18 0 25 -3 6 -5 1 -5 -13z"/>
<path d="M4614 2450 c0 -52 1 -74 3 -47 2 26 2 68 0 95 -2 26 -3 4 -3 -48z"/>
<path d="M4592 2500 c0 -14 2 -19 5 -12 2 6 2 18 0 25 -3 6 -5 1 -5 -13z"/>
<path d="M2132 2470 c-2 -28 21 -302 38 -460 6 -58 14 -149 18 -203 4 -55 11
-97 17 -96 6 0 8 6 7 13 -2 6 -6 43 -8 81 -8 146 -70 717 -72 665z"/>
<path d="M2241 2414 c0 -11 3 -14 6 -6 3 7 2 16 -1 19 -3 4 -6 -2 -5 -13z"/>
<path d="M4586 2342 c-9 -15 12 -45 25 -36 5 3 9 13 9 22 0 14 -2 14 -9 3 -7
-11 -10 -10 -13 5 -3 14 -6 16 -12 6z"/>
<path d="M2252 2265 c0 -16 2 -22 5 -12 2 9 2 23 0 30 -3 6 -5 -1 -5 -18z"/>
<path d="M4956 2238 c-10 -67 -17 -580 -8 -574 6 3 10 122 11 288 1 245 4 284
18 300 15 16 15 18 0 18 -10 0 -18 -11 -21 -32z"/>
<path d="M2263 2155 c0 -22 2 -30 4 -17 2 12 2 30 0 40 -3 9 -5 -1 -4 -23z"/>
<path d="M4138 1653 c-21 -3 -30 -12 -34 -31 -3 -15 -7 -32 -9 -39 -9 -29 13
-19 28 12 18 39 17 38 69 26 32 -8 40 -6 60 16 17 18 18 22 5 17 -9 -3 -17
-10 -17 -16 0 -5 -10 -2 -22 6 -22 16 -29 17 -80 9z"/>
<path d="M4708 1644 c-21 -9 -38 -20 -38 -24 0 -10 26 -31 36 -29 5 1 46 1 92
0 81 -1 82 -1 82 -26 0 -24 -2 -25 -72 -27 l-73 -2 65 -3 c84 -4 96 -9 80 -28
-9 -10 -35 -16 -84 -17 l-71 -2 75 -5 c57 -5 75 -10 75 -21 0 -12 -18 -16 -94
-18 -60 -2 -98 1 -107 9 -10 8 -14 33 -14 80 0 71 -13 90 -30 43 -17 -43 -11
-85 15 -119 20 -27 35 -35 88 -45 77 -14 132 -3 167 35 32 35 40 31 35 -15 -2
-22 1 -42 6 -46 6 -4 9 15 8 50 -1 31 -6 56 -11 56 -4 0 -8 13 -8 29 0 45 -16
77 -52 104 -44 34 -119 43 -170 21z"/>
<path d="M4942 1620 c2 -19 8 -34 13 -33 17 3 17 27 0 48 -15 19 -15 18 -13
-15z"/>
<path d="M3188 1588 c-6 -17 3 -58 12 -58 5 0 6 -9 3 -20 -3 -11 -8 -20 -12
-20 -3 0 -7 -11 -7 -25 -1 -15 4 -25 11 -25 7 0 22 -3 32 -7 17 -6 17 -6 1 14
-22 24 -23 56 -3 73 20 17 19 23 -9 53 -15 16 -26 22 -28 15z"/>
<path d="M3284 1536 c3 -36 7 -70 10 -75 7 -11 264 -2 289 11 9 5 17 15 17 22
0 8 6 16 14 19 8 3 13 21 13 46 0 35 -2 39 -17 31 -11 -6 -30 -6 -49 0 -37 10
-43 2 -39 -51 3 -30 0 -34 -22 -34 -22 0 -25 5 -28 43 -3 41 -4 42 -39 42
l-36 0 7 -39 c4 -29 2 -40 -9 -45 -28 -11 -44 5 -47 47 -3 39 -5 42 -35 45
l-33 3 4 -65z m316 13 c0 -11 -4 -17 -10 -14 -5 3 -10 13 -10 21 0 8 5 14 10
14 6 0 10 -9 10 -21z"/>
<path d="M3668 1589 c-6 -4 -13 -32 -14 -63 -3 -48 0 -57 18 -67 22 -12 68 2
68 21 0 19 73 11 97 -12 19 -18 26 -20 48 -10 24 11 25 15 19 64 -4 29 -11 58
-16 63 -10 11 -203 14 -220 4z m167 -49 c0 -19 -80 -27 -101 -9 -27 22 -14 30
44 27 43 -2 57 -7 57 -18z"/>
<path d="M4254 1590 c-10 -4 -22 -6 -26 -3 -11 6 -10 -12 4 -44 6 -15 10 -36
9 -46 -5 -39 16 -47 125 -47 65 0 105 4 110 11 11 18 -17 29 -77 29 -65 0 -80
12 -82 64 -1 37 -24 50 -63 36z"/>
<path d="M3976 1582 c-9 -14 -4 -107 6 -119 15 -19 212 -18 227 1 15 18 -5 26
-67 26 -83 0 -92 6 -87 56 l5 44 -40 0 c-21 0 -41 -3 -44 -8z"/>
<path d="M2807 1574 c-14 -14 -6 -24 19 -24 16 0 24 5 22 13 -5 14 -31 21 -41
11z"/>
<path d="M3140 1551 c0 -16 -4 -33 -10 -36 -5 -3 -10 -13 -10 -20 0 -12 5 -12
24 -4 18 9 23 18 22 47 -1 44 -26 57 -26 13z"/>
<path d="M2350 1540 c0 -8 5 -22 10 -30 9 -13 10 -13 10 0 0 8 -5 22 -10 30
-9 13 -10 13 -10 0z"/>
<path d="M4509 1528 c11 -30 51 -37 51 -10 0 12 -9 22 -22 26 -35 9 -38 8 -29
-16z"/>
<path d="M2785 1530 c-3 -5 1 -10 9 -10 9 0 16 5 16 10 0 6 -4 10 -9 10 -6 0
-13 -4 -16 -10z"/>
<path d="M2777 1496 c-4 -10 -5 -21 -2 -24 9 -9 17 6 13 25 -3 17 -4 17 -11
-1z"/>
<path d="M2800 1495 c0 -8 7 -15 15 -15 8 0 15 4 15 9 0 5 -7 11 -15 15 -9 3
-15 0 -15 -9z"/>
<path d="M2189 1405 c-6 -40 -4 -53 7 -43 3 3 4 23 2 44 l-3 39 -6 -40z"/>
<path d="M3086 1411 c-4 -6 -3 -19 3 -28 9 -17 10 -17 17 0 8 21 -10 45 -20
28z"/>
<path d="M3627 3591 c-2 -3 1 -141 5 -306 7 -245 11 -302 23 -315 12 -12 59
-15 251 -18 247 -4 284 -1 284 23 0 12 -3 13 -19 3 -15 -9 -23 -9 -36 2 -14
12 -14 15 8 39 14 14 30 36 36 48 12 25 15 86 4 97 -8 8 -10 25 -12 110 -1 40
-4 47 -18 42 -9 -4 -64 -7 -122 -7 -145 -2 -161 -1 -161 11 0 6 55 10 144 10
86 0 147 4 151 10 11 18 -5 29 -33 21 -37 -9 -232 -1 -232 10 0 5 58 9 128 9
71 0 131 3 135 6 3 3 4 11 1 17 -3 9 -41 11 -125 9 -77 -2 -126 1 -132 7 -8 8
24 11 108 13 66 0 126 1 133 1 20 -1 14 41 -8 55 -13 8 -18 20 -16 35 3 12 5
28 5 35 1 19 29 14 41 -7 5 -11 11 -46 11 -78 1 -48 3 -52 8 -23 3 19 4 58 1
85 l-5 50 -115 5 c-138 7 -157 4 -163 -22 -7 -24 -43 -20 -39 4 2 12 -10 17
-50 22 -63 8 -187 6 -191 -3z m60 -19 c14 -9 12 -28 -5 -59 -15 -28 -15 -46 0
-37 7 5 8 3 3 -6 -4 -7 -8 -26 -7 -41 0 -16 -4 -29 -9 -29 -5 0 -9 41 -9 90 0
88 3 97 27 82z m340 -77 c21 -14 30 -15 45 -6 15 9 22 9 33 -3 8 -8 15 -17 15
-20 0 -10 -181 -6 -201 4 -10 6 -19 20 -19 30 0 18 6 20 50 16 27 -2 62 -12
77 -21z m-176 -46 c16 -31 -4 -47 -24 -18 -16 22 -14 39 3 39 5 0 14 -9 21
-21z m-106 -19 c-3 -5 -13 -10 -21 -10 -8 0 -12 5 -9 10 3 6 13 10 21 10 8 0
12 -4 9 -10z m31 -41 c3 -6 0 -15 -7 -20 -14 -8 -32 9 -23 23 7 11 22 10 30
-3z m114 -19 c0 -5 -4 -10 -9 -10 -6 0 -13 5 -16 10 -3 6 1 10 9 10 9 0 16 -4
16 -10z m-150 -60 c0 -5 -7 -10 -15 -10 -8 0 -15 5 -15 10 0 6 7 10 15 10 8 0
15 -4 15 -10z m408 -42 c-4 -10 -36 -13 -138 -12 -74 1 -135 5 -137 10 -2 5
60 10 138 12 113 3 140 0 137 -10z m-8 -55 c0 -9 -14 -11 -47 -8 -27 2 -85 4
-130 5 -51 0 -83 4 -83 10 0 7 44 10 130 8 94 -2 130 -6 130 -15z m0 -49 c0
-14 -8 -16 -46 -10 -26 3 -85 6 -131 6 -54 0 -82 4 -78 10 4 6 58 10 131 10
108 0 124 -2 124 -16z m-2 -69 c-2 -23 -9 -31 -27 -33 -18 -3 -22 0 -18 11 8
21 -13 27 -91 27 -81 0 -120 9 -100 22 7 4 64 7 126 6 l113 -3 -3 -30z m-174
-84 c34 -3 61 -11 64 -18 3 -10 -34 -13 -162 -13 -158 0 -186 5 -171 30 7 11
173 12 269 1z"/>
<path d="M3552 3360 c0 -14 2 -19 5 -12 2 6 2 18 0 25 -3 6 -5 1 -5 -13z"/>
<path d="M3178 3303 c6 -2 18 -2 25 0 6 3 1 5 -13 5 -14 0 -19 -2 -12 -5z"/>
<path d="M3405 3290 c3 -5 8 -10 11 -10 2 0 4 5 4 10 0 6 -5 10 -11 10 -5 0
-7 -4 -4 -10z"/>
<path d="M3417 3268 c-6 -4 -33 -10 -59 -13 -57 -8 -70 -21 -29 -30 34 -7 111
-70 111 -91 0 -19 20 -18 34 2 14 18 46 9 47 -15 0 -10 4 -7 11 9 11 25 11 25
24 -15 l12 -40 1 71 c1 39 -2 85 -5 101 -6 28 -7 29 -71 28 -35 0 -70 -3 -76
-7z m133 -54 c0 -19 -4 -34 -9 -34 -11 0 -21 49 -14 67 9 23 23 3 23 -33z"/>
<path d="M2957 3253 c-11 -10 -8 -41 5 -49 7 -4 8 -3 4 4 -4 7 -1 12 8 12 9 0
16 7 16 15 0 12 7 14 26 9 19 -5 25 -4 20 5 -8 12 -68 15 -79 4z"/>
<path d="M3212 3244 c-5 -8 -28 -18 -51 -21 -32 -4 -45 -11 -51 -29 -7 -16
-21 -25 -52 -32 -24 -5 -47 -6 -51 -2 -14 12 5 40 27 40 14 0 23 6 23 15 0 22
-38 18 -70 -8 -28 -22 -28 -22 -21 -110 4 -48 12 -94 18 -103 10 -12 32 -15
116 -14 58 1 119 1 136 1 40 -1 61 21 41 41 -10 9 -15 42 -16 101 -2 117 -23
168 -49 121z m-4 -188 c3 -13 0 -16 -9 -11 -9 6 -11 2 -6 -14 7 -30 -21 -41
-40 -15 -12 16 -15 17 -24 4 -8 -12 -9 -11 -7 5 3 14 11 19 26 18 14 -2 21 1
17 7 -9 15 5 32 23 28 9 -2 18 -12 20 -22z m-140 -10 c3 -14 0 -17 -12 -13
-11 4 -16 1 -17 -11 0 -14 -2 -14 -9 3 -15 35 -11 47 12 43 13 -2 24 -11 26
-22z"/>
<path d="M4250 3031 c0 -74 4 -121 10 -121 6 0 10 45 10 114 0 66 -4 117 -10
121 -6 4 -10 -37 -10 -114z"/>
<path d="M3560 2986 c0 -25 5 -46 10 -46 6 0 10 18 10 39 0 22 -4 43 -10 46
-6 4 -10 -12 -10 -39z"/>
<path d="M4627 3123 c-4 -3 -7 -13 -7 -22 0 -8 -10 -25 -22 -38 l-22 -24 36 3
c20 1 34 6 31 11 -3 4 2 16 11 26 15 16 15 19 -2 34 -10 10 -22 14 -25 10z"/>
<path d="M7115 7161 c22 -22 50 -52 62 -68 l22 -28 1 68 0 67 -62 0 -62 0 39
-39z"/>
<path d="M3815 7160 c-3 -6 1 -13 10 -16 19 -8 30 0 20 15 -8 14 -22 14 -30 1z"/>
<path d="M2567 7132 c-18 -19 -23 -62 -9 -62 16 0 42 36 42 58 0 27 -11 28
-33 4z"/>
<path d="M1921 6664 c0 -11 3 -14 6 -6 3 7 2 16 -1 19 -3 4 -6 -2 -5 -13z"/>
<path d="M1871 6284 c0 -11 3 -14 6 -6 3 7 2 16 -1 19 -3 4 -6 -2 -5 -13z"/>
<path d="M46 5841 c-4 -5 3 -7 14 -4 23 6 26 13 6 13 -8 0 -17 -4 -20 -9z"/>
<path d="M110 5725 c-7 -9 -11 -18 -8 -20 3 -3 11 1 18 10 7 9 11 18 8 20 -3
3 -11 -1 -18 -10z"/>
<path d="M1410 4956 c14 -8 27 -12 29 -10 6 6 -1 11 -29 18 l-25 7 25 -15z"/>
<path d="M1450 4936 c0 -2 7 -7 16 -10 8 -3 12 -2 9 4 -6 10 -25 14 -25 6z"/>
<path d="M1120 4633 c0 -22 18 -43 38 -43 20 0 10 30 -15 48 -21 13 -23 13
-23 -5z"/>
<path d="M1207 4579 c-3 -11 -10 -18 -15 -15 -9 5 3 -73 12 -82 2 -2 16 9 31
24 23 23 26 31 18 58 -10 37 -38 46 -46 15z"/>
<path d="M6960 4090 c0 -5 9 -10 20 -10 11 0 20 5 20 10 0 6 -9 10 -20 10 -11
0 -20 -4 -20 -10z"/>
<path d="M6942 3900 c0 -14 2 -19 5 -12 2 6 2 18 0 25 -3 6 -5 1 -5 -13z"/>
<path d="M0 3571 l0 -134 24 22 c23 22 25 22 70 7 54 -18 82 -20 91 -6 4 6 17
3 33 -8 l27 -17 -23 30 c-12 17 -67 77 -122 135 l-100 105 0 -134z"/>
<path d="M6520 3270 c0 -16 17 -20 28 -7 8 10 6 13 -9 14 -10 1 -19 -2 -19 -7z"/>
<path d="M3972 468 c9 -7 18 -20 21 -28 3 -8 6 -3 6 13 1 21 -3 27 -21 27 -19
0 -20 -2 -6 -12z"/>
<path d="M3487 464 c-9 -10 2 -24 19 -24 8 0 14 7 14 15 0 15 -21 21 -33 9z"/>
<path d="M4160 430 c0 -5 5 -10 10 -10 6 0 10 5 10 10 0 6 -4 10 -10 10 -5 0
-10 -4 -10 -10z"/>
<path d="M3711 421 c-12 -8 -12 -12 -2 -25 10 -12 17 -13 31 -3 14 8 16 15 8
24 -12 15 -18 16 -37 4z"/>
<path d="M3945 410 c-3 -5 3 -10 14 -10 12 0 21 5 21 10 0 6 -6 10 -14 10 -8
0 -18 -4 -21 -10z"/>
<path d="M4545 360 c3 -5 8 -10 11 -10 2 0 4 5 4 10 0 6 -5 10 -11 10 -5 0 -7
-4 -4 -10z"/>
<path d="M4580 336 c0 -14 5 -26 10 -26 6 0 10 9 10 19 0 11 -4 23 -10 26 -6
4 -10 -5 -10 -19z"/>
<path d="M4780 340 c-9 -17 -8 -20 8 -20 22 0 46 23 35 33 -12 13 -32 7 -43
-13z"/>
<path d="M2625 310 c3 -5 8 -10 11 -10 2 0 4 5 4 10 0 6 -5 10 -11 10 -5 0 -7
-4 -4 -10z"/>
<path d="M4680 305 c0 -8 6 -15 14 -15 8 0 16 7 20 15 4 10 -1 15 -14 15 -11
0 -20 -7 -20 -15z"/>
<path d="M2526 272 c-3 -6 -1 -14 5 -17 15 -10 25 3 12 16 -7 7 -13 7 -17 1z"/>
<path d="M2590 270 c0 -5 4 -10 9 -10 6 0 13 5 16 10 3 6 -1 10 -9 10 -9 0
-16 -4 -16 -10z"/>
<path d="M4825 230 c3 -5 12 -10 20 -10 8 0 17 5 20 10 4 6 -5 10 -20 10 -15
0 -24 -4 -20 -10z"/>
<path d="M5080 180 c0 -5 4 -10 9 -10 6 0 13 5 16 10 3 6 -1 10 -9 10 -9 0
-16 -4 -16 -10z"/>
<path d="M1740 170 c-13 -8 -12 -10 3 -10 9 0 17 5 17 10 0 12 -1 12 -20 0z"/>
<path d="M6139 49 c-10 -6 -7 -9 14 -9 29 0 35 5 14 13 -8 3 -20 1 -28 -4z"/>
<path d="M5320 40 c0 -5 5 -10 10 -10 6 0 10 5 10 10 0 6 -4 10 -10 10 -5 0
-10 -4 -10 -10z"/>
</g>
</svg>
